<?xml version="1.0" encoding="UTF-8" standalone="no"?>
<!-- Generator: Adobe Illustrator 24.3.0, SVG Export Plug-In . SVG Version: 6.00 Build 0)  -->

<svg
   version="1.1"
   id="Layer_1"
   x="0px"
   y="0px"
   viewBox="0 0 48 48"
   xml:space="preserve"
   sodipodi:docname="ajax.svg"
   width="48"
   height="48"
   inkscape:version="1.3 (0e150ed6c4, 2023-07-21)"
   xmlns:inkscape="http://www.inkscape.org/namespaces/inkscape"
   xmlns:sodipodi="http://sodipodi.sourceforge.net/DTD/sodipodi-0.dtd"
   xmlns="http://www.w3.org/2000/svg"
   xmlns:svg="http://www.w3.org/2000/svg"><defs
   id="defs3" /><sodipodi:namedview
   id="namedview3"
   pagecolor="#505050"
   bordercolor="#ffffff"
   borderopacity="1"
   inkscape:showpageshadow="0"
   inkscape:pageopacity="0"
   inkscape:pagecheckerboard="1"
   inkscape:deskcolor="#d1d1d1"
   inkscape:zoom="12.984375"
   inkscape:cx="22.064982"
   inkscape:cy="25.99278"
   inkscape:window-width="1920"
   inkscape:window-height="1027"
   inkscape:window-x="-8"
   inkscape:window-y="-8"
   inkscape:window-maximized="1"
   inkscape:current-layer="Layer_1" />&#10;<style
   type="text/css"
   id="style1">&#10;	.st0{fill:#8C96A1;}&#10;	.st1{fill:url(#XMLID_3_);}&#10;	.st2{fill:#0C4C75;}&#10;</style>&#10;<rect
   style="fill:#f9f9f9;stroke-width:2.03682;stroke-linecap:round;stroke-miterlimit:15.9;paint-order:markers stroke fill"
   id="rect3"
   width="47.999996"
   height="29.551231"
   x="1.9073486e-06"
   y="10.163659"
   ry="7.6177382" /><g
   id="XMLID_1_"
   transform="matrix(0.08038976,0,0,0.08038976,2.9639352,3.0351432)">&#10;	<path
   id="XMLID_5_"
   class="st0"
   d="M 50.42,251.09 0.47,362.92 h 32.69 l 9.68,-23.71 h 50.23 l 9.68,23.71 H 135.3 L 85.22,251.09 Z m 17.68,26.38 8.42,21.33 8.42,21.33 H 68.1 51.26 l 8.42,-21.33 z" />&#10;	<path
   id="XMLID_8_"
   class="st0"
   d="m 292.46,251.09 -49.95,111.83 h 32.69 l 9.68,-23.71 h 50.23 l 9.68,23.71 h 32.69 L 327.4,251.09 Z m 17.82,26.38 8.42,21.33 8.42,21.33 h -16.84 -16.84 l 8.42,-21.33 z" />&#10;	<polygon
   id="XMLID_9_"
   class="st0"
   points="429.13,305.53 386.05,250.67 423.09,250.67 446.8,286.45 471.92,250.67 508.54,250.67 464.48,304.97 511.35,363.34 474.31,363.34 447.37,325.31 420.99,363.34 381.42,363.34 " />&#10;	<path
   id="XMLID_10_"
   class="st0"
   d="m 229.18,203.38 -44.34,43.64 15.29,13.89 14.45,-14.59 h 1.68 v 83.35 c 0,10.52 -8.56,19.08 -19.08,19.08 h -15.15 c -10.52,0 -19.08,-8.56 -19.08,-19.08 v -8.84 h -29.47 v 11.08 c 0,19.08 15.43,34.52 34.52,34.52 h 39.29 c 19.08,0 34.52,-15.43 34.52,-34.52 v -85.45 h 1.12 l 16.84,14.45 13.33,-13.89 z" />&#10;	<path
   id="XMLID_11_"
   class="st0"
   d="M 147.66,311.7 192,268.07 176.71,254.18 162.26,268.77 h -1.68 v -83.35 c 0,-10.52 8.56,-19.08 19.08,-19.08 h 15.15 c 10.52,0 19.08,8.56 19.08,19.08 v 8.84 h 29.47 v -11.08 c 0,-19.08 -15.43,-34.52 -34.52,-34.52 h -39.29 c -19.08,0 -34.52,15.43 -34.52,34.52 v 85.45 h -1.12 l -16.84,-14.45 -13.33,13.89 z" />&#10;	&#10;		<linearGradient
   id="XMLID_3_"
   gradientUnits="userSpaceOnUse"
   x1="5.8091002"
   y1="506.00439"
   x2="7.1725001"
   y2="506.00439"
   gradientTransform="matrix(0,160.5822,160.5822,0,-80999.391,-788.7021)">&#10;		<stop
   offset="0"
   style="stop-color:#70B0DF"
   id="stop1" />&#10;		<stop
   offset="0.5"
   style="stop-color:#1B81C5"
   id="stop2" />&#10;		<stop
   offset="1"
   style="stop-color:#4A98CE"
   id="stop3" />&#10;	</linearGradient>&#10;	<path
   id="XMLID_19_"
   class="st1"
   d="m 169.97,145.85 c -19.08,0 -34.52,15.43 -34.52,34.52 v 85.45 h -1.12 l -16.84,-14.45 -13.33,13.89 43.64,43.64 44.34,-43.64 -15.29,-13.89 -14.45,14.59 h -1.54 v -83.35 c 0,-10.52 8.56,-19.08 19.08,-19.08 h 15.15 c 10.52,0 19.08,8.56 19.08,19.08 v 8.84 h 29.47 v -11.08 c 0,-19.08 -15.43,-34.52 -34.52,-34.52 z m 59.21,54.87 -44.34,43.64 15.29,13.89 14.45,-14.59 h 1.68 V 327 c 0,10.52 -8.56,19.08 -19.08,19.08 h -15.15 c -10.52,0 -19.08,-8.56 -19.08,-19.08 v -8.84 h -29.47 v 11.08 c 0,19.08 15.43,34.52 34.52,34.52 h 39.29 c 19.08,0 34.52,-15.43 34.52,-34.52 v -85.45 h 1.12 l 16.84,14.45 13.33,-13.89 z m 156.87,47.28 43.08,54.72 -47.85,57.81 h 39.57 l 26.38,-38.02 26.94,38.02 h 37.18 L 464.49,302.16 508.54,248 H 472.06 L 446.8,283.64 423.09,248 Z M 50.42,248.42 0.47,360.25 h 32.69 l 9.68,-23.71 h 50.23 l 9.68,23.71 H 135.3 L 85.22,248.42 Z m 242.04,0 -49.95,111.83 h 32.69 l 9.68,-23.71 h 50.23 l 9.68,23.71 h 32.69 L 327.4,248.42 Z M 68.1,274.8 l 8.42,21.33 8.42,21.33 H 68.1 51.26 l 8.42,-21.33 z m 242.18,0 8.42,21.33 8.42,21.33 h -16.84 -16.84 l 8.42,-21.33 z"
   style="fill:url(#XMLID_3_)" />&#10;	<path
   id="XMLID_27_"
   class="st2"
   d="m 169.97,145.85 v -0.28 c -9.68,0 -18.38,3.93 -24.69,10.24 -6.31,6.31 -10.24,15.01 -10.24,24.69 v 85.17 h -0.7 l -16.98,-14.59 -13.76,14.32 44.2,44.2 44.9,-44.2 -15.86,-14.31 -14.59,14.73 h -1.12 v -83.06 c 0,-10.38 8.42,-18.8 18.8,-18.8 h 15.15 c 10.38,0 18.8,8.42 18.8,18.8 v 9.26 h 30.17 v -11.37 c 0,-9.68 -3.93,-18.38 -10.24,-24.69 -6.31,-6.31 -15.01,-10.24 -24.69,-10.24 h -39.29 v 0.14 0.28 h 39.29 c 18.94,0 34.24,15.29 34.24,34.24 v 10.8 h -28.9 v -8.56 c 0,-5.33 -2.1,-10.24 -5.75,-13.75 -3.51,-3.51 -8.42,-5.75 -13.75,-5.75 h -15.15 c -5.33,0 -10.24,2.1 -13.75,5.75 -3.51,3.51 -5.75,8.42 -5.75,13.75 v 83.77 h 2.1 l 14.31,-14.45 14.73,13.33 -43.92,43.22 -43.22,-43.22 12.77,-13.33 16.7,14.31 h 1.26 0.28 v -85.87 c 0,-18.94 15.29,-34.24 34.24,-34.24 v -0.28 h 0.41 z m 59.21,54.87 -0.28,-0.28 -44.62,43.92 15.86,14.31 14.59,-14.73 h 1.12 V 327 c 0,10.38 -8.42,18.8 -18.8,18.8 H 181.9 c -10.38,0 -18.8,-8.42 -18.8,-18.8 v -9.26 h -30.17 v 11.37 c 0,9.68 3.93,18.38 10.24,24.69 6.31,6.31 15.01,10.24 24.69,10.24 h 39.29 c 9.68,0 18.38,-3.93 24.69,-10.24 6.31,-6.31 10.24,-15.01 10.24,-24.69 v -85.17 h 0.7 l 16.98,14.59 13.75,-14.31 -44.2,-44.2 -0.28,0.28 0.15,0.42 -0.28,0.28 43.36,43.36 -12.77,13.33 -16.7,-14.31 h -1.26 -0.28 v 85.87 c 0,18.94 -15.29,34.24 -34.24,34.24 h -39.29 c -18.94,0 -34.24,-15.29 -34.24,-34.24 v -10.8 h 28.9 V 327 c 0,5.33 2.1,10.24 5.75,13.75 3.51,3.51 8.42,5.75 13.75,5.75 h 15.15 c 5.33,0 10.24,-2.1 13.75,-5.75 3.51,-3.51 5.75,-8.42 5.75,-13.75 v -83.77 h -2.1 L 200.12,257.68 185.39,244.35 229.6,201 229.18,200.72 228.9,201 Z m 156.87,47.28 -0.28,0.28 42.94,54.58 -48.13,58.23 h 40.41 l 26.24,-37.88 26.8,37.88 h 38.02 L 464.9,302.3 509.24,247.72 h -37.46 l -24.98,35.36 -23.57,-35.36 h -38.02 l 0.42,0.56 0.42,-0.28 v 0.28 h 36.9 l 23.85,35.92 25.26,-35.92 h 35.64 l -43.78,53.88 46.58,58.09 h -36.2 l -26.94,-38.31 -26.52,38.31 h -38.73 l 47.43,-57.53 -43.36,-55 -0.13,0.28 v 0.28 z M 50.42,248.42 50.14,248.28 0.05,360.53 h 33.39 l 9.68,-23.71 H 92.8 l 9.68,23.71 h 33.39 L 85.5,248 H 50.14 l -0.14,0.14 0.42,0.28 v 0.28 h 34.66 l 49.81,111.13 h -31.85 l -9.68,-23.71 h -50.8 l -9.68,23.71 H 0.89 L 50.56,248.42 h -0.14 v 0.28 z m 242.04,0 -0.28,-0.14 -50.09,112.25 h 33.39 l 9.68,-23.71 h 49.67 l 9.68,23.71 h 33.53 L 327.68,248 h -35.36 l -0.14,0.14 0.28,0.28 v 0.28 h 34.66 l 49.81,111.13 h -31.85 l -9.68,-23.71 h -50.65 l -9.68,23.71 h -31.85 l 49.67,-111.41 h -0.43 v 0.28 z M 68.1,274.8 l -0.28,0.14 8.42,21.33 8.28,20.77 H 68.1 51.68 l 8.28,-20.91 8.42,-21.33 H 68.1 l -0.28,0.14 0.28,-0.14 -0.28,-0.14 -8.42,21.33 -8.56,21.75 h 17.4 17.4 l -8.7,-21.75 -8.84,-22.03 -0.28,0.84 z m 242.18,0 -0.28,0.14 8.42,21.33 8.28,20.77 h -16.42 -16.42 l 8.28,-20.91 8.42,-21.33 h -0.28 l -0.28,0.14 0.28,-0.14 -0.28,-0.14 -8.42,21.33 -8.56,21.75 h 17.4 17.4 l -8.7,-21.75 -8.84,-22.03 -0.28,0.84 z" />&#10;</g>&#10;</svg>
