<?xml version="1.0" encoding="UTF-8" standalone="no"?>
<!-- Created with Inkscape (http://www.inkscape.org/) -->

<svg
   width="24"
   height="24"
   viewBox="0 0 24 24"
   version="1.1"
   id="svg5"
   xml:space="preserve"
   inkscape:version="1.2.2 (732a01da63, 2022-12-09)"
   sodipodi:docname="auto-mapper.svg"
   xmlns:inkscape="http://www.inkscape.org/namespaces/inkscape"
   xmlns:sodipodi="http://sodipodi.sourceforge.net/DTD/sodipodi-0.dtd"
   xmlns:xlink="http://www.w3.org/1999/xlink"
   xmlns="http://www.w3.org/2000/svg"
   xmlns:svg="http://www.w3.org/2000/svg"><sodipodi:namedview
     id="namedview7"
     pagecolor="#505050"
     bordercolor="#ffffff"
     borderopacity="1"
     inkscape:showpageshadow="0"
     inkscape:pageopacity="0"
     inkscape:pagecheckerboard="1"
     inkscape:deskcolor="#505050"
     inkscape:document-units="px"
     showgrid="false"
     inkscape:zoom="16"
     inkscape:cx="20.5"
     inkscape:cy="14.25"
     inkscape:window-width="1920"
     inkscape:window-height="1027"
     inkscape:window-x="-8"
     inkscape:window-y="-8"
     inkscape:window-maximized="1"
     inkscape:current-layer="layer1"
     showguides="true" /><defs
     id="defs2"><linearGradient
       inkscape:collect="always"
       id="linearGradient19076"><stop
         style="stop-color:#d01f27;stop-opacity:1;"
         offset="0"
         id="stop19072" /><stop
         style="stop-color:#ab1c22;stop-opacity:1;"
         offset="1"
         id="stop19074" /></linearGradient><linearGradient
       inkscape:collect="always"
       xlink:href="#linearGradient19076"
       id="linearGradient19078"
       x1="-6.4680982"
       y1="-109.5955"
       x2="64.031898"
       y2="-39.095497"
       gradientUnits="userSpaceOnUse"
       gradientTransform="translate(53.718099,47.73674)" /></defs><g
     inkscape:label="Layer 1"
     inkscape:groupmode="layer"
     id="layer1"><g
       id="g19980"
       transform="matrix(0.30386163,0,0,0.30386163,-13.068584,20.08538)"><rect
         style="fill:url(#linearGradient19078);fill-opacity:1;stroke:none;stroke-width:2.45508;stroke-linecap:round;stroke-miterlimit:15.9;paint-order:markers stroke fill"
         id="rect18977"
         width="70.5"
         height="70.5"
         x="47.25"
         y="-61.858757"
         ry="10.783379" /><path
         style="fill:#ffffff;stroke-width:0.3525"
         d="m 117.72699,-0.76772171 c -31.484662,0.4666713 -15.74233,0.2333357 0,0 z M 47.25,-7.288972 v -3.525 l 6.961875,-0.0061 c 13.844608,-0.01217 19.9898,-3.568474 24.04928,-13.917631 3.702392,-9.4388 5.904252,-12.977611 10.407595,-16.726998 5.748997,-4.786491 11.330076,-6.361752 22.5394,-6.361752 H 117.75 v 3.71584 3.715839 l -7.49062,-0.05375 c -13.488084,-0.09681 -19.382433,3.398705 -23.520536,13.948302 -3.983465,10.155366 -6.536857,13.920955 -12.078577,17.812752 -5.48762,3.8538053 -9.869628,4.9234983 -20.169156,4.9234983 H 47.25 Z m 54.05947,3.004594 c -4.665564,-0.846772 -8.647737,-2.602797 -12.160097,-5.362265 -2.468318,-1.939219 -2.422457,-1.480522 -0.487479,-4.875971 0.868669,-1.524312 1.634482,-2.936734 1.701806,-3.138709 0.06733,-0.201979 1.039244,0.449931 2.159821,1.448683 4.781825,4.261965 7.434705,5.070998 17.383359,5.301272 l 7.84312,0.181541 v 3.48293 3.4829253 l -6.96187,-0.031795 c -4.0222,-0.018366 -8.0246,-0.224691 -9.47866,-0.4885937 z m -28.50322,-30.91601 c -4.307757,-4.360098 -7.368766,-5.264954 -17.713125,-5.236124 L 47.25,-40.414652 v -3.705909 -3.70591 l 6.785625,0.007 c 11.77757,0.01212 17.286475,1.604116 23.168096,6.695256 1.221081,1.056969 1.223008,1.063404 0.60665,2.025924 -0.340077,0.531073 -1.170902,2.036306 -1.846278,3.344962 -0.675376,1.308656 -1.265618,2.369812 -1.31165,2.358125 -0.04603,-0.01169 -0.876818,-0.824013 -1.846193,-1.805166 z"
         id="path19976"
         sodipodi:nodetypes="cccccssscccsssscccssssscccscccsccccsssscc" /></g></g></svg>
