<?xml version="1.0" encoding="UTF-8" standalone="no"?>
<svg
   fill="none"
   height="24"
   viewBox="204.925 153.577 7.2731232 8.2612128"
   width="24"
   version="1.1"
   id="svg16"
   sodipodi:docname="c.svg"
   inkscape:version="1.1.1 (3bf5ae0d25, 2021-09-20)"
   xmlns:inkscape="http://www.inkscape.org/namespaces/inkscape"
   xmlns:sodipodi="http://sodipodi.sourceforge.net/DTD/sodipodi-0.dtd"
   xmlns="http://www.w3.org/2000/svg"
   xmlns:svg="http://www.w3.org/2000/svg">
  <defs
     id="defs20" />
  <sodipodi:namedview
     id="namedview18"
     pagecolor="#505050"
     bordercolor="#ffffff"
     borderopacity="1"
     inkscape:pageshadow="0"
     inkscape:pageopacity="0"
     inkscape:pagecheckerboard="1"
     showgrid="false"
     inkscape:snap-page="true"
     inkscape:snap-bbox="true"
     inkscape:bbox-nodes="true"
     inkscape:zoom="15.241828"
     inkscape:cx="12.85935"
     inkscape:cy="14.597986"
     inkscape:window-width="1920"
     inkscape:window-height="1027"
     inkscape:window-x="-8"
     inkscape:window-y="-8"
     inkscape:window-maximized="1"
     inkscape:current-layer="svg16" />
  <g
     id="g844"
     transform="matrix(0.00969553,0,0,0.00969553,202.90196,152.04758)">
    <path
       d="m 962.541,407.983 c 0,-14.237 -3.034,-27.074 -9.336,-37.811 -6.068,-10.736 -15.171,-19.605 -27.307,-26.607 -100.829,-58.117 -201.891,-116.233 -302.72,-174.35 -27.308,-15.638 -53.449,-15.171 -80.523,0.7 -40.145,23.574 -241.336,138.873 -301.086,173.65 -24.741,14.237 -36.644,36.177 -36.644,64.652 V 759.25 c 0,14.004 3.034,26.374 8.869,37.111 6.069,10.97 15.405,20.306 27.775,27.541 59.984,34.777 260.941,149.843 301.086,173.65 27.074,15.868 53.448,16.568 80.523,0.7 100.829,-58.35 201.891,-116.233 302.72,-174.35 12.603,-7.235 21.706,-16.338 27.774,-27.541 5.835,-10.737 8.869,-23.107 8.869,-37.111 z"
       fill="#9a4993"
       id="path2" />
    <path
       d="m 584.667,582.333 -371.34,213.794 c 6.069,10.97 15.405,20.306 27.775,27.542 59.984,34.776 260.941,149.842 301.086,173.649 27.074,15.872 53.449,16.572 80.523,0.7 100.829,-58.35 201.891,-116.233 302.72,-174.349 12.603,-7.236 21.706,-16.338 27.774,-27.542 z"
       fill="#6a1577"
       id="path4" />
    <path
       d="m 474.735,645.584 c 21.707,37.811 62.318,63.252 108.765,63.252 46.913,0 87.758,-25.674 109.231,-63.952 L 584.667,582.333 Z"
       fill="#6a1577"
       id="path6" />
    <path
       d="m 962.542,407.983 c 0,-14.237 -3.035,-27.074 -9.336,-37.811 L 584.667,582.333 953.672,796.128 c 5.835,-10.737 8.87,-23.107 8.87,-37.111 z"
       fill="#813084"
       id="path8" />
    <g
       fill="#ffffff"
       id="g14">
      <path
         d="m 692.731,644.884 c -21.472,38.044 -62.317,63.952 -109.231,63.952 -46.68,0 -87.291,-25.441 -108.764,-63.252 -10.503,-18.438 -16.572,-39.444 -16.572,-62.084 0,-69.32 56.016,-125.336 125.336,-125.336 46.213,0 86.592,25.207 108.298,62.551 L 801.262,457.697 C 757.617,382.543 676.393,331.895 583.267,331.895 c -139.107,0 -251.605,112.732 -251.605,251.605 0,45.513 12.136,88.459 33.376,125.336 43.412,75.388 125.102,126.269 218.462,126.269 93.594,0 175.284,-51.114 218.696,-126.969 z M 831.137,523.983 h -24.974 v 120.668 h 24.974 z m 55.316,0 h -24.974 v 120.668 h 24.974 z"
         id="path10" />
      <path
         d="M 906.759,544.289 H 786.091 v 24.974 h 120.668 z m 0,55.082 H 786.091 v 24.974 h 120.668 z"
         id="path12" />
    </g>
  </g>
</svg>
