<?xml version="1.0" encoding="UTF-8" standalone="no"?>
<svg
   width="48"
   height="48"
   viewBox="0 0 48 48"
   version="1.1"
   id="svg3"
   sodipodi:docname="entityframework.svg"
   inkscape:version="1.3 (0e150ed6c4, 2023-07-21)"
   xmlns:inkscape="http://www.inkscape.org/namespaces/inkscape"
   xmlns:sodipodi="http://sodipodi.sourceforge.net/DTD/sodipodi-0.dtd"
   xmlns="http://www.w3.org/2000/svg"
   xmlns:svg="http://www.w3.org/2000/svg">
  <defs
     id="defs3" />
  <sodipodi:namedview
     id="namedview3"
     pagecolor="#505050"
     bordercolor="#ffffff"
     borderopacity="1"
     inkscape:showpageshadow="0"
     inkscape:pageopacity="0"
     inkscape:pagecheckerboard="1"
     inkscape:deskcolor="#d1d1d1"
     inkscape:zoom="7.3450717"
     inkscape:cx="12.797697"
     inkscape:cy="20.762221"
     inkscape:window-width="1920"
     inkscape:window-height="1027"
     inkscape:window-x="-8"
     inkscape:window-y="-8"
     inkscape:window-maximized="1"
     inkscape:current-layer="svg3" />
  <g
     id="g3"
     transform="matrix(1.1013237,0,0,1.1013237,1.9735259,1.9735259)">
    <rect
       width="40"
       height="40"
       fill="#68217a"
       rx="3"
       ry="3"
       id="rect1"
       x="0"
       y="0" />
    <path
       fill="#ffffff"
       d="M 9.351,13.185 H 6.001 V 10.532 H 8.384 V 8.912 H 6.001 V 6.806 H 9.333 L 9.417,5.188 H 4.14 v 9.615 h 5.281 z m 3.745,-6.379 h 3.778 l 0.084,-1.617 h -5.75 v 9.623 h 1.888 V 10.747 H 15.7 V 9.128 h -2.604 z m 17.613,16.333 c 0,-2.072 -0.377,-3.99 -3.108,-3.99 H 24.43 v 9.623 h 1.866 v -2.975 h 0.865 l 1.364,2.982 h 1.935 l -1.531,-3.202 c 1.09,-0.394 1.78,-1.287 1.78,-2.437 z m -3.113,0.932 H 26.295 V 20.88 h 1.291 c 0.329,0 0.797,0.032 1.008,0.243 0.293,0.292 0.383,1.162 0.383,1.8 0,0.333 -0.003,0.565 -0.224,0.787 -0.332,0.332 -0.94,0.362 -1.157,0.362 z m 9.637,3.077 h -3.349 v -2.652 h 2.383 v -1.62 H 33.884 V 20.77 h 3.331 l 0.084,-1.619 h -5.277 v 9.616 h 5.281 z M 6.967,27.272 c -0.574,0 -1.7,-0.044 -1.715,-3.305 0.015,-3.261 1.141,-3.305 1.715,-3.305 0.721,0 1.385,0.194 1.655,1.647 l 1.756,-0.191 c -0.259,-1.48 -1.04,-3.111 -3.412,-3.111 -2.911,0 -3.579,2.697 -3.588,4.96 0.01,2.263 0.678,4.96 3.588,4.96 2.371,0 3.152,-1.63 3.412,-3.111 L 8.622,25.625 c -0.27,1.452 -0.934,1.647 -1.655,1.647 z m 10.205,-8.413 c -3.329,0 -5.746,2.096 -5.746,5.106 0,2.864 2.578,5.106 5.746,5.106 3.168,0 5.746,-2.242 5.746,-5.106 0,-3.01 -2.417,-5.106 -5.746,-5.106 z m 0,8.569 c -2.159,0 -3.805,-1.553 -3.805,-3.463 0,-2.039 1.5,-3.463 3.805,-3.463 2.305,0 3.805,1.424 3.805,3.463 0,1.909 -1.646,3.463 -3.805,3.463 z"
       id="path1" />
    <path
       fill="#40ccf4"
       d="m 22.866,26.284 c -0.375,2.527 -2.784,4.418 -5.694,4.418 -2.91,0 -5.319,-1.891 -5.694,-4.418 h -0.052 v 0.944 c 0,2.864 2.578,5.106 5.746,5.106 3.168,0 5.746,-2.242 5.746,-5.106 v -0.944 z"
       id="path2" />
    <path
       fill="#40ccf4"
       d="m 22.866,29.548 c -0.375,2.527 -2.784,4.418 -5.694,4.418 -2.91,0 -5.319,-1.891 -5.694,-4.418 h -0.052 v 0.944 c 0,2.864 2.578,5.106 5.746,5.106 3.168,0 5.746,-2.242 5.746,-5.106 v -0.944 z m -2.819,-6.113 c -0.665,-0.678 -1.654,-1.081 -2.874,-1.081 -1.22,0 -2.209,0.403 -2.874,1.081 a 2.923,2.923 0 0 0 -0.048,0.529 c 0,1.447 1.284,2.581 2.923,2.581 1.639,0 2.923,-1.134 2.923,-2.581 0,-0.185 -0.017,-0.361 -0.048,-0.529 z"
       id="path3" />
  </g>
</svg>
