<?xml version="1.0" encoding="UTF-8" standalone="no"?>
<svg
   height="48"
   viewBox="0 -960 960 960"
   width="48"
   version="1.1"
   id="svg1"
   sodipodi:docname="gym-manager-logo.svg"
   inkscape:version="1.3 (0e150ed6c4, 2023-07-21)"
   xmlns:inkscape="http://www.inkscape.org/namespaces/inkscape"
   xmlns:sodipodi="http://sodipodi.sourceforge.net/DTD/sodipodi-0.dtd"
   xmlns="http://www.w3.org/2000/svg"
   xmlns:svg="http://www.w3.org/2000/svg">
  <defs
     id="defs1" />
  <sodipodi:namedview
     id="namedview1"
     pagecolor="#505050"
     bordercolor="#ffffff"
     borderopacity="1"
     inkscape:showpageshadow="0"
     inkscape:pageopacity="0"
     inkscape:pagecheckerboard="1"
     inkscape:deskcolor="#d1d1d1"
     inkscape:zoom="17.3125"
     inkscape:cx="24"
     inkscape:cy="24.866426"
     inkscape:window-width="1920"
     inkscape:window-height="1027"
     inkscape:window-x="-8"
     inkscape:window-y="-8"
     inkscape:window-maximized="1"
     inkscape:current-layer="svg1" />
  <path
     d="m 508.06748,-12.487362 q -11.72924,-9.924743 -11.72924,-25.262983 0,-15.338239 11.72924,-27.969731 L 610.02166,-165.86979 293.33213,-482.55933 193.18245,-380.60515 q -11.72924,10.827 -27.51861,10.827 -15.78936,0 -25.71411,-9.92475 -9.92474,-10.82699 -9.92474,-27.5186 0,-16.69162 9.92474,-26.61636 l 22.55624,-22.55623 -19.84949,-21.65399 q -11.72924,-11.72924 -11.72924,-28.42085 0,-16.69162 11.72924,-29.32311 l 48.72147,-48.72147 -7.218,-7.21799 q -12.63149,-11.72924 -12.63149,-28.42086 0,-16.69161 12.63149,-29.3231 12.6315,-12.63149 29.32311,-12.63149 16.69161,0 28.42085,12.63149 l 7.218,8.12024 48.72147,-49.62371 q 11.72924,-10.82699 28.42085,-10.82699 16.69161,0 29.32311,10.82699 l 20.75173,20.75173 24.36074,-23.45848 q 10.82699,-10.82699 26.16523,-10.82699 15.33824,0 26.16523,10.82699 10.82699,10.82699 10.82699,26.16523 0,15.33824 -10.82699,26.16523 l -101.95418,101.05193 316.68953,316.68954 101.05193,-101.95418 q 9.92475,-9.92475 26.16523,-9.92475 16.24049,0 27.06749,9.92475 9.92474,9.92474 9.92474,26.16523 0,16.24049 -9.92474,26.16523 l -24.36074,24.36073 20.75174,20.75174 q 10.82699,12.63149 10.82699,29.3231 0,16.69162 -10.82699,28.42086 l -49.62372,49.62372 7.218,7.21799 q 11.72924,12.63149 11.72924,29.774262 0,17.142743 -11.72924,27.969736 -11.72924,12.631491 -27.96973,12.631491 -16.24049,0 -29.77423,-12.631491 l -7.218,-8.120245 -47.81922,48.721467 q -12.63149,11.72924 -29.3231,11.72924 -16.69161,0 -28.42086,-11.72924 l -20.75173,-21.653985 -24.36073,24.360733 q -11.72925,11.72923956 -27.06749,11.72923956 -15.33824,0 -25.26298,-11.72923956 z"
     id="path1"
     style="fill:#e6ce37;fill-opacity:1;stroke-width:0.902249" />
</svg>
