<?xml version="1.0" encoding="UTF-8" standalone="no"?>
<svg
        viewBox="0 0 24 24"
        version="1.1"
        id="svg4"
        sodipodi:docname="jquery.svg"
        inkscape:version="1.1.1 (3bf5ae0d25, 2021-09-20)"
        width="24"
        height="24"
        xmlns:inkscape="http://www.inkscape.org/namespaces/inkscape"
        xmlns:sodipodi="http://sodipodi.sourceforge.net/DTD/sodipodi-0.dtd"
        xmlns="http://www.w3.org/2000/svg"
>
    <defs
            id="defs8"/>
    <sodipodi:namedview
            id="namedview6"
            pagecolor="#505050"
            bordercolor="#ffffff"
            borderopacity="1"
            inkscape:pageshadow="0"
            inkscape:pageopacity="0"
            inkscape:pagecheckerboard="1"
            showgrid="false"
            inkscape:snap-bbox="true"
            inkscape:snap-page="true"
            inkscape:zoom="4.8226892"
            inkscape:cx="21.564732"
            inkscape:cy="20.009583"
            inkscape:window-width="1920"
            inkscape:window-height="1027"
            inkscape:window-x="-8"
            inkscape:window-y="341"
            inkscape:window-maximized="1"
            inkscape:current-layer="svg4"/>
    <g
            id="g936"
            transform="scale(0.1875)">
        <rect
                style="fill:#ffffff;stroke-width:3.92089"
                id="rect847"
                width="128"
                height="127.99999"
                x="-1.0658141e-14"
                y="4.4408921e-16"/>
        <path
                fill="#0868ac"
                d="m 47.961,79.02 0.193,0.094 0.344,0.166 c 0.439,0.209 0.882,0.416 1.329,0.615 l 0.281,0.125 c 0.513,0.225 1.029,0.439 1.551,0.645 l 0.378,0.148 c 0.482,0.188 0.972,0.37 1.463,0.543 l 0.184,0.063 c 0.539,0.188 1.083,0.363 1.632,0.534 l 0.395,0.117 c 0.558,0.169 1.109,0.37 1.685,0.477 C 93.95,89.212 104.567,60.58 104.567,60.58 95.649,72.198 79.82,75.263 64.822,71.851 64.254,71.723 63.702,71.545 63.148,71.381 L 62.731,71.255 C 62.19,71.089 61.652,70.914 61.119,70.731 l -0.221,-0.08 C 60.42,70.483 59.947,70.305 59.477,70.124 L 59.079,69.968 C 58.563,69.765 58.051,69.552 57.545,69.33 l -0.307,-0.136 c -0.435,-0.197 -0.866,-0.396 -1.294,-0.602 l -0.375,-0.18 C 55.233,68.248 54.9,68.073 54.568,67.902 L 53.9,67.552 C 53.495,67.335 53.097,67.11 52.701,66.879 l -0.405,-0.226 c -0.527,-0.311 -1.048,-0.632 -1.563,-0.958 l -0.421,-0.28 C 49.938,65.174 49.566,64.929 49.2,64.676 l -0.358,-0.252 c -0.354,-0.25 -0.704,-0.503 -1.051,-0.76 l -0.466,-0.353 c -0.318,-0.243 -0.635,-0.488 -0.948,-0.74 l -0.423,-0.34 C 45.556,61.903 45.162,61.574 44.772,61.236 L 44.643,61.127 C 44.22,60.759 43.807,60.38 43.399,60 l -0.35,-0.337 c -0.303,-0.287 -0.6,-0.577 -0.893,-0.874 l -0.35,-0.35 c -0.372,-0.381 -0.737,-0.767 -1.095,-1.158 l -0.054,-0.058 c -0.379,-0.414 -0.749,-0.837 -1.111,-1.264 l -0.291,-0.346 c -0.27,-0.325 -0.538,-0.655 -0.799,-0.988 L 38.163,54.261 C 37.848,53.853 37.541,53.446 37.24,53.032 28.914,41.674 25.922,26.009 32.577,13.144 l -5.899,7.482 c -7.559,10.863 -6.617,24.997 -0.844,36.541 l 0.423,0.821 0.271,0.52 0.168,0.299 0.301,0.539 c 0.179,0.316 0.362,0.63 0.55,0.944 l 0.315,0.519 c 0.208,0.336 0.421,0.668 0.64,1 l 0.272,0.422 c 0.301,0.448 0.609,0.896 0.926,1.336 l 0.027,0.035 0.156,0.211 c 0.275,0.379 0.558,0.753 0.844,1.123 l 0.318,0.404 c 0.255,0.321 0.516,0.641 0.78,0.959 l 0.298,0.355 c 0.355,0.419 0.717,0.835 1.087,1.242 l 0.022,0.023 0.042,0.046 c 0.36,0.394 0.73,0.778 1.104,1.164 l 0.354,0.357 c 0.29,0.292 0.584,0.579 0.882,0.865 l 0.361,0.343 c 0.397,0.374 0.798,0.741 1.208,1.101 l 0.02,0.015 0.21,0.18 c 0.361,0.312 0.729,0.623 1.099,0.928 l 0.455,0.362 c 0.302,0.242 0.608,0.481 0.916,0.716 l 0.489,0.372 c 0.34,0.25 0.682,0.496 1.027,0.737 l 0.375,0.266 0.103,0.073 c 0.328,0.226 0.663,0.442 0.998,0.659 l 0.432,0.288 c 0.513,0.325 1.035,0.646 1.562,0.956 l 0.432,0.244 c 0.388,0.223 0.777,0.442 1.172,0.656 l 0.648,0.336 z m 3.693,-36.795 c 0.819,1.174 1.726,2.57 2.813,3.514 0.394,0.434 0.806,0.856 1.226,1.273 l 0.324,0.318 c 0.409,0.396 0.824,0.785 1.252,1.164 l 0.052,0.044 0.012,0.013 c 0.475,0.416 0.965,0.816 1.463,1.21 l 0.333,0.26 c 0.5,0.383 1.009,0.759 1.531,1.118 l 0.045,0.033 0.698,0.46 0.332,0.22 c 0.373,0.238 0.75,0.472 1.135,0.694 l 0.16,0.093 c 0.331,0.191 0.667,0.379 1.003,0.561 l 0.356,0.187 0.702,0.363 0.106,0.048 c 0.482,0.237 0.968,0.465 1.464,0.682 l 0.323,0.133 c 0.396,0.168 0.797,0.333 1.199,0.487 l 0.514,0.188 c 0.366,0.136 0.732,0.26 1.102,0.383 l 0.499,0.16 c 0.526,0.163 1.045,0.369 1.593,0.46 28.222,4.677 34.738,-17.054 34.738,-17.054 -5.874,8.459 -17.248,12.494 -29.386,9.344 -0.539,-0.142 -1.071,-0.295 -1.598,-0.462 l -0.481,-0.155 c -0.375,-0.121 -0.748,-0.25 -1.118,-0.385 L 73.542,47.391 C 73.137,47.235 72.735,47.074 72.338,46.906 L 72.014,46.768 C 71.516,46.551 71.025,46.323 70.542,46.083 L 69.803,45.707 69.377,45.488 C 69.063,45.318 68.751,45.14 68.443,44.961 L 68.22,44.834 C 67.837,44.611 67.461,44.381 67.088,44.145 L 66.747,43.916 66.015,43.432 C 65.494,43.073 64.988,42.698 64.49,42.317 L 64.147,42.046 C 58.834,37.853 54.623,32.119 52.62,25.618 50.522,18.878 50.974,11.31 54.609,5.169 l -4.466,6.306 c -5.466,7.865 -5.169,18.396 -0.905,26.715 0.714,1.393 1.517,2.747 2.416,4.035 z m 29.747,-9.731 0.701,0.243 0.309,0.098 c 0.333,0.104 0.662,0.226 1.005,0.29 15.583,3.011 19.811,-7.997 20.936,-9.617 -3.703,5.331 -9.925,6.61 -17.56,4.757 -0.603,-0.146 -1.266,-0.363 -1.848,-0.57 -0.745,-0.266 -1.479,-0.568 -2.193,-0.91 C 81.395,26.133 80.103,25.344 78.905,24.438 72.073,19.253 67.829,9.366 72.287,1.312 l -2.412,3.324 c -3.222,4.743 -3.539,10.633 -1.303,15.869 2.358,5.56 7.19,9.92 12.829,11.989 z M 66.359,96.295 h -4.226 c -0.234,0 -0.467,0.188 -0.517,0.417 l -1.5,6.94 -1.5,6.94 c -0.049,0.229 -0.282,0.417 -0.516,0.417 h -2.991 c -2.959,0 -2.617,-2.047 -2.011,-4.851 l 0.018,-0.085 0.066,-0.354 0.012,-0.066 0.135,-0.72 0.145,-0.771 0.154,-0.785 0.682,-3.332 0.683,-3.332 c 0.047,-0.23 -0.107,-0.419 -0.341,-0.419 h -4.337 c -0.234,0 -0.466,0.188 -0.514,0.418 l -0.933,4.424 -0.932,4.425 -0.002,0.006 -0.086,0.412 c -1.074,4.903 -0.79,9.58 5.048,9.727 l 0.17,0.003 h 9.163 c 0.234,0 0.467,-0.188 0.516,-0.417 l 1.976,-9.289 1.976,-9.29 c 0.049,-0.23 -0.103,-0.417 -0.338,-0.418 z M 21.103,96.246 h -4.64 c -0.235,0 -0.469,0.188 -0.521,0.416 l -0.44,1.942 -0.44,1.942 c -0.051,0.229 0.098,0.416 0.333,0.416 h 4.676 c 0.235,0 0.468,-0.188 0.518,-0.417 l 0.425,-1.941 0.425,-1.941 c 0.049,-0.229 -0.101,-0.417 -0.336,-0.417 z m -1.346,6.044 H 15.08 c -0.234,0 -0.469,0.188 -0.521,0.416 l -0.657,2.91 -0.656,2.909 -0.183,0.834 -0.631,2.97 -0.63,2.971 c -0.049,0.229 -0.15,0.599 -0.225,0.821 0,0 -0.874,2.6 -2.343,2.57 L 9.05,118.687 7.779,118.664 H 7.778 c -0.234,-0.003 -0.469,0.18 -0.524,0.407 l -0.485,2.039 -0.484,2.038 c -0.055,0.228 0.093,0.416 0.326,0.42 0.833,0.01 2.699,0.031 3.828,0.031 3.669,0 5.604,-2.033 6.843,-7.883 l 1.451,-6.714 1.361,-6.297 c 0.049,-0.227 -0.103,-0.415 -0.337,-0.415 z m 86.117,-1.574 -0.194,-0.801 -0.191,-0.82 -0.097,-0.414 c -0.38,-1.477 -1.495,-2.328 -3.917,-2.328 l -3.77,-0.004 -3.472,-0.005 h -3.907 c -0.234,0 -0.466,0.188 -0.515,0.417 l -0.173,0.816 -0.204,0.964 -0.057,0.271 -1.759,8.24 -1.67,7.822 c -0.05,0.23 -0.066,0.512 -0.038,0.626 0.028,0.115 0.479,0.209 0.713,0.209 h 3.524 c 0.235,0 0.532,-0.042 0.66,-0.094 0.128,-0.052 0.317,-0.513 0.364,-0.742 l 0.626,-3.099 0.627,-3.1 10e-4,-0.005 0.084,-0.413 0.76,-3.56 0.671,-3.144 c 0.05,-0.229 0.281,-0.416 0.515,-0.417 l 11.089,-0.005 c 0.235,0.002 0.383,-0.185 0.33,-0.414 z m 14.275,-7.24 -0.854,0.003 h -3.549 c -0.235,0 -0.536,0.159 -0.667,0.353 l -7.849,11.498 c -0.132,0.194 -0.283,0.166 -0.335,-0.062 l -0.578,-2.533 c -0.052,-0.229 -0.287,-0.416 -0.522,-0.416 h -5.045 c -0.235,0 -0.374,0.184 -0.31,0.409 l 2.261,7.921 c 0.064,0.226 0.069,0.596 0.011,0.824 l -0.985,3.833 c -0.059,0.228 0.085,0.413 0.32,0.413 h 4.987 c 0.234,0 0.474,-0.186 0.532,-0.413 l 0.986,-3.833 c 0.058,-0.229 0.221,-0.567 0.363,-0.755 l 12.742,-16.911 c 0.142,-0.188 0.065,-0.341 -0.169,-0.339 z m -40.086,9.919 v -0.004 c -0.029,0.254 -0.264,0.441 -0.499,0.441 h -6.397 c -0.222,0 -0.334,-0.15 -0.301,-0.336 l 0.006,-0.015 -0.004,0.002 0.003,-0.021 0.029,-0.109 c 0.611,-1.624 1.855,-2.69 4.194,-2.69 2.634,-10e-4 3.148,1.285 2.969,2.732 z m -1.877,-7.384 c -8.211,0 -10.157,4.984 -11.249,10.015 -1.091,5.128 -0.998,9.921 7.5,9.921 h 1.03 l 0.256,-0.001 h 0.06 l 1.02,-0.003 h 0.018 c 2.244,-0.009 4.495,-0.026 5.406,-0.033 0.233,-0.004 0.461,-0.191 0.509,-0.42 l 0.344,-1.681 0.067,-0.327 0.41,-2.006 c 0.047,-0.229 -0.106,-0.418 -0.341,-0.418 h -7.639 c -3.039,0 -3.941,-0.807 -3.608,-3.181 H 84.18 l -0.001,0.001 0.008,-0.001 c 0.194,-0.003 0.374,-0.137 0.445,-0.315 l 0.029,-0.106 -0.001,10e-4 c 1.813,-6.839 1.293,-11.445 -6.474,-11.446 z m -38.81,7.358 -0.116,0.409 v 10e-4 l -0.922,3.268 -0.922,3.267 c -0.063,0.227 -0.308,0.411 -0.543,0.411 h -4.88 c -3.702,0 -4.604,-2.896 -3.702,-7.166 0.901,-4.368 2.668,-7.083 6.312,-7.358 4.98,-0.376 5.976,3.126 4.773,7.168 z m 3.348,7.105 c 0,0 2.301,-5.588 2.823,-8.814 0.713,-4.319 -1.45,-10.585 -9.804,-10.585 -8.306,0 -11.914,5.981 -13.29,12.484 -1.376,6.55 0.427,12.293 8.686,12.246 l 6.516,-0.024 6.089,-0.022 c 0.234,-0.002 0.474,-0.188 0.534,-0.414 l 1.061,-4.046 c 0.059,-0.228 -0.084,-0.414 -0.319,-0.416 l -1.017,-0.006 -1.017,-0.006 c -0.199,-10e-4 -0.313,-0.131 -0.289,-0.302 z m 41.12,-3.741 c 0,0.155 -0.125,0.281 -0.28,0.281 -0.154,0 -0.28,-0.126 -0.28,-0.281 0,-0.154 0.125,-0.279 0.28,-0.279 0.155,0 0.28,0.125 0.28,0.279 z"
                id="path2"/>
    </g>
</svg>
