<?xml version="1.0" encoding="UTF-8" standalone="no"?>
<!-- Generator: Adobe Illustrator 15.0.2, SVG Export Plug-In . SVG Version: 6.00 Build 0)  -->

<svg
   version="1.1"
   id="Layer_1"
   x="0px"
   y="0px"
   width="208px"
   height="128px"
   viewBox="0 0 208 128"
   enable-background="new 0 0 208 128"
   xml:space="preserve"
   sodipodi:docname="md.svg"
   inkscape:version="1.1.1 (3bf5ae0d25, 2021-09-20)"
   xmlns:inkscape="http://www.inkscape.org/namespaces/inkscape"
   xmlns:sodipodi="http://sodipodi.sourceforge.net/DTD/sodipodi-0.dtd"
   xmlns="http://www.w3.org/2000/svg"
   xmlns:svg="http://www.w3.org/2000/svg"><defs
   id="defs9" /><sodipodi:namedview
   id="namedview7"
   pagecolor="#505050"
   bordercolor="#ffffff"
   borderopacity="1"
   inkscape:pageshadow="0"
   inkscape:pageopacity="0"
   inkscape:pagecheckerboard="1"
   showgrid="false"
   inkscape:zoom="5.3942308"
   inkscape:cx="104"
   inkscape:cy="64.049911"
   inkscape:window-width="1920"
   inkscape:window-height="1027"
   inkscape:window-x="-8"
   inkscape:window-y="-8"
   inkscape:window-maximized="1"
   inkscape:current-layer="Layer_1" />
<rect
   style="fill:#ffffff;stroke:#2281dc;stroke-width:1.88976"
   id="rect844"
   width="193.5401"
   height="110.6738"
   x="7.6007128"
   y="7.2299466" /><path
   fill="none"
   stroke="#FFFFFF"
   stroke-width="10"
   d="M15,5h178c5.523,0,10,4.477,10,10v98c0,5.523-4.477,10-10,10H15  c-5.523,0-10-4.477-10-10V15C5,9.477,9.477,5,15,5z"
   id="path2"
   style="stroke:#2281dc;stroke-opacity:1" />
<path
   fill="#FFFFFF"
   d="M30,98V30h20l20,25l20-25h20v68H90V59L70,84L50,59v39H30z M155,98l-30-33h20V30h20v35h20L155,98z"
   id="path4"
   style="fill:#2281dc;fill-opacity:1" />
</svg>
