<?xml version="1.0" encoding="UTF-8" standalone="no"?>
<svg xmlns:dc="http://purl.org/dc/elements/1.1/" xmlns:cc="http://creativecommons.org/ns#" xmlns:rdf="http://www.w3.org/1999/02/22-rdf-syntax-ns#" xmlns:svg="http://www.w3.org/2000/svg" xmlns="http://www.w3.org/2000/svg" xmlns:sodipodi="http://sodipodi.sourceforge.net/DTD/sodipodi-0.dtd" xmlns:inkscape="http://www.inkscape.org/namespaces/inkscape" version="1.1" id="svg9035" viewBox="0 0 547.08616 521.9724" height="147.31221mm" width="154.39987mm" inkscape:version="0.91 r13725" sodipodi:docname="semiFunDiagram.svg">
  <sodipodi:namedview pagecolor="#ffffff" bordercolor="#666666" borderopacity="1" objecttolerance="10" gridtolerance="10" guidetolerance="10" inkscape:pageopacity="0" inkscape:pageshadow="2" inkscape:window-width="1920" inkscape:window-height="1163" id="namedview4314" showgrid="false" showguides="true" inkscape:guide-bbox="true" inkscape:zoom="1.3248793" inkscape:cx="44.361601" inkscape:cy="247.04145" inkscape:window-x="1920" inkscape:window-y="0" inkscape:window-maximized="1" inkscape:current-layer="g10260">
    <sodipodi:guide position="286.07075,297.27875" orientation="1,0" id="guide4316"/>
    <sodipodi:guide position="334.63873,262.05362" orientation="0,1" id="guide4318"/>
  </sodipodi:namedview>
  <defs id="defs9037">
    <clipPath id="presentation_clip_path" clipPathUnits="userSpaceOnUse">
      <rect x="0" y="0" width="29700" height="21000" id="rect10139"/>
    </clipPath>
    <clipPath id="presentation_clip_path_shrink" clipPathUnits="userSpaceOnUse">
      <rect x="29" y="21" width="29641" height="20958" id="rect10142"/>
    </clipPath>
  </defs>
  <metadata id="metadata9040">
    <rdf:RDF>
      <cc:Work rdf:about="">
        <dc:format>image/svg+xml</dc:format>
        <dc:type rdf:resource="http://purl.org/dc/dcmitype/StillImage"/>
        <dc:title/>
      </cc:Work>
    </rdf:RDF>
  </metadata>
  <g style="fill-rule:evenodd;stroke-width:28.22200012;stroke-linejoin:round" id="g10651" transform="matrix(0.03543307,0,0,0.03543307,-175.04372,-52.472439)">
    <g id="g10249">
      <g class="Master_Slide" id="id2">
        <g class="Background" id="bg-id2"/>
        <g class="BackgroundObjects" id="bo-id2"/>
      </g>
    </g>
    <g id="g10256">
      <g id="container-id1">
        <g id="id1" class="Slide" clip-path="url(#presentation_clip_path)">
          <g class="Page" id="g10260">
            <rect style="fill:none;stroke:none" class="BoundingBox" x="5671" y="1500" width="14698" height="14697" id="rect10291"/>
            <path inkscape:connector-curvature="0" style="fill:#dbeefc;stroke:none" d="m 7731,3747 134,-135 138,-132 140,-128 144,-125 148,-120 150,-117 153,-113 156,-109 159,-105 162,-101 164,-96 167,-92 169,-88 171,-83 173,-79 175,-75 177,-70 179,-65 181,-61 182,-55 183,-52 185,-46 186,-42 186,-36 188,-32 189,-27 189,-23 189,-17 190,-12 191,-8 190,-2 0,7347 -5288,-5101 z m -2059,-2246 0,0 z m 14695,14694 0,0 z" id="path10293"/>
            <path inkscape:connector-curvature="0" style="fill:none;stroke:#83b0e9" d="m 7731,3747 134,-135 138,-132 140,-128 144,-125 148,-120 150,-117 153,-113 156,-109 159,-105 162,-101 164,-96 167,-92 169,-88 171,-83 173,-79 175,-75 177,-70 179,-65 181,-61 182,-55 183,-52 185,-46 186,-42 186,-36 188,-32 189,-27 189,-23 189,-17 190,-12 191,-8 190,-2 0,7347 -5288,-5101 z" id="path10295"/>
            <path inkscape:connector-curvature="0" style="fill:none;stroke:#83b0e9" d="m 5672,1501 0,0 z" id="path10297"/>
            <path inkscape:connector-curvature="0" style="fill:none;stroke:#83b0e9" d="m 20367,16195 0,0 z" id="path10299"/>
            <rect style="fill:none;stroke:none" class="BoundingBox" x="5671" y="1500" width="14698" height="14697" id="rect10304"/>
            <path inkscape:connector-curvature="0" style="fill:#dbeefc;stroke:none" d="m 5672,8865 2,-192 7,-192 12,-192 17,-192 23,-191 27,-190 32,-190 37,-189 42,-187 47,-187 52,-185 56,-184 62,-182 66,-180 71,-179 75,-177 80,-175 85,-173 89,-170 93,-168 98,-165 102,-163 107,-160 111,-158 114,-154 119,-151 122,-149 127,-144 130,-142 134,-138 5208,5182 -7347,17 z m 0,-7364 0,0 z m 14695,14694 0,0 z" id="path10306"/>
            <path inkscape:connector-curvature="0" style="fill:none;stroke:#83b0e9" d="m 5672,8865 2,-192 7,-192 12,-192 17,-192 23,-191 27,-190 32,-190 37,-189 42,-187 47,-187 52,-185 56,-184 62,-182 66,-180 71,-179 75,-177 80,-175 85,-173 89,-170 93,-168 98,-165 102,-163 107,-160 111,-158 114,-154 119,-151 122,-149 127,-144 130,-142 134,-138 5208,5182 -7347,17 z" id="path10308"/>
            <path inkscape:connector-curvature="0" style="fill:none;stroke:#83b0e9" d="m 5672,1501 0,0 z" id="path10310"/>
            <path inkscape:connector-curvature="0" style="fill:none;stroke:#83b0e9" d="m 20367,16195 0,0 z" id="path10312"/>
            <rect style="fill:none;stroke:none" class="BoundingBox" x="5671" y="1500" width="14698" height="14697" id="rect10317"/>
            <path inkscape:connector-curvature="0" style="fill:#dbeefc;stroke:none" d="m 13011,1501 190,2 189,7 189,12 189,17 188,22 188,27 187,31 186,36 185,41 184,46 183,51 181,55 180,60 178,64 177,70 175,73 172,78 171,83 169,87 166,91 164,96 161,99 158,104 156,108 153,112 151,116 147,119 144,124 140,127 138,130 -5131,5259 -8,-7347 z m -7339,0 0,0 z m 14695,14694 0,0 z" id="path10319"/>
            <path inkscape:connector-curvature="0" style="fill:none;stroke:#83b0e9" d="m 13011,1501 190,2 189,7 189,12 189,17 188,22 188,27 187,31 186,36 185,41 184,46 183,51 181,55 180,60 178,64 177,70 175,73 172,78 171,83 169,87 166,91 164,96 161,99 158,104 156,108 153,112 151,116 147,119 144,124 140,127 138,130 -5131,5259 -8,-7347 z" id="path10321"/>
            <path inkscape:connector-curvature="0" style="fill:none;stroke:#83b0e9" d="m 5672,1501 0,0 z" id="path10323"/>
            <path inkscape:connector-curvature="0" style="fill:none;stroke:#83b0e9" d="m 20367,16195 0,0 z" id="path10325"/>
            <rect style="fill:none;stroke:none" class="BoundingBox" x="5671" y="1500" width="14698" height="14697" id="rect10330"/>
            <path inkscape:connector-curvature="0" style="fill:#dbeefc;stroke:none" d="m 18139,3578 133,133 130,137 126,139 123,143 119,146 115,149 112,152 107,154 104,158 99,160 96,162 91,165 87,167 82,169 78,172 74,173 69,175 65,177 61,178 55,180 51,181 47,183 41,184 37,184 32,186 28,186 22,187 18,188 13,188 9,188 3,188 -7347,38 5120,-5270 z M 5672,1501 l 0,0 z m 14695,14694 0,0 z" id="path10332"/>
            <path inkscape:connector-curvature="0" style="fill:none;stroke:#83b0e9" d="m 18139,3578 133,133 130,137 126,139 123,143 119,146 115,149 112,152 107,154 104,158 99,160 96,162 91,165 87,167 82,169 78,172 74,173 69,175 65,177 61,178 55,180 51,181 47,183 41,184 37,184 32,186 28,186 22,187 18,188 13,188 9,188 3,188 -7347,38 5120,-5270 z" id="path10334"/>
            <path inkscape:connector-curvature="0" style="fill:none;stroke:#83b0e9" d="m 5672,1501 0,0 z" id="path10336"/>
            <path inkscape:connector-curvature="0" style="fill:none;stroke:#83b0e9" d="m 20367,16195 0,0 z" id="path10338"/>
            <rect style="fill:none;stroke:none" class="BoundingBox" x="5671" y="1494" width="14698" height="14697" id="rect10343"/>
            <path inkscape:connector-curvature="0" style="fill:#dbeefc;stroke:none" d="m 7731,13943 134,135 138,132 140,128 144,125 148,120 150,117 153,113 156,109 159,105 162,101 164,96 167,92 169,88 171,83 173,79 175,75 177,70 179,65 181,61 182,55 183,52 185,46 186,42 186,36 188,32 189,27 189,23 189,17 190,12 191,8 190,2 0,-7347 -5288,5101 z m -2059,2246 0,0 z m 14695,-14694 0,0 z" id="path10345"/>
            <path inkscape:connector-curvature="0" style="fill:none;stroke:#83b0e9" d="m 7731,13943 115.1718,131.234 138,132 140,128 144,125 148,120 150,117 153,113 156,109 159,105 162,101 164,96 167,92 169,88 171,83 173.0002,79 175,75 177,70 179,65 181,61 182,55 183,52 185,46 186,42 186,36 188,32 189,27 189,23 189,17 190,12 191,8 190,2 L 13019,8842 Z" id="path10347" sodipodi:nodetypes="cccccccccccccccccccccccccccccccccc"/>
            <path inkscape:connector-curvature="0" style="fill:none;stroke:#83b0e9" d="m 5672,16189 0,0 z" id="path10349"/>
            <path inkscape:connector-curvature="0" style="fill:none;stroke:#83b0e9" d="m 20367,1495 0,0 z" id="path10351"/>
            <text class="TextShape" transform="scale(-1,-1)" id="text10353" x="-26218" y="-17246">
              <tspan style="font-weight:400;font-size:635px;font-family:'Liberation Sans', sans-serif" class="TextParagraph" font-size="635px" font-weight="400" id="tspan10355">
                <tspan class="TextPosition" x="-13109" y="-8623" id="tspan10357">
                  <tspan style="fill:#000000;stroke:none" id="tspan10359"/>
                </tspan>
              </tspan>
            </text>
            <rect style="fill:none;stroke:none" class="BoundingBox" x="5666" y="1503" width="14698" height="14697" id="rect10364"/>
            <path inkscape:connector-curvature="0" style="fill:#dbeefc;stroke:none" d="m 5667,8834 2,192 7,192 12,192 17,192 23,191 27,190 32,190 37,189 42,187 47,187 52,185 56,184 62,182 66,180 71,179 75,177 80,175 85,173 89,170 93,168 98,165 102,163 107,160 111,158 114,154 119,151 122,149 127,144 130,142 134,138 5208,-5182 -7347,-17 z m 0,7364 0,0 z m 14695,-14694 0,0 z" id="path10366"/>
            <path inkscape:connector-curvature="0" style="fill:none;stroke:#83b0e9" d="m 5667,8834 2,192 7,192 12,192 17,192 23,191 27,190 32,190 37,189 42,187 47,187 52,185 56,184 62,182 66,180 71,179 75,177 80,175 85,173 89,170 93,168 98,165 102,163 107,160 111,158 114,154 119,151 122,149 127,144 130,142 134,138 5208,-5182 -7347,-17 z" id="path10368"/>
            <path inkscape:connector-curvature="0" style="fill:none;stroke:#83b0e9" d="m 5667,16198 0,0 z" id="path10370"/>
            <path inkscape:connector-curvature="0" style="fill:none;stroke:#83b0e9" d="m 20362,1504 0,0 z" id="path10372"/>
            <rect style="fill:none;stroke:none" class="BoundingBox" x="5671" y="1494" width="14698" height="14697" id="rect10377"/>
            <path inkscape:connector-curvature="0" style="fill:#dbeefc;stroke:none" d="m 13011,16189 190,-2 189,-7 189,-12 189,-17 188,-22 188,-27 187,-31 186,-36 185,-41 184,-46 183,-51 181,-55 180,-60 178,-64 177,-70 175,-73 172,-78 171,-83 169,-87 166,-91 164,-96 161,-99 158,-104 156,-108 153,-112 151,-116 147,-119 144,-124 140,-127 138,-130 -5131,-5259 -8,7347 z m -7339,0 0,0 z m 14695,-14694 0,0 z" id="path10379"/>
            <path inkscape:connector-curvature="0" style="fill:none;stroke:#83b0e9" d="m 13011,16189 190,-2 189,-7 189,-12 189,-17 188,-22 188,-27 187,-31 186,-36 185,-41 184,-46 183,-51 181,-55 180,-60 178,-64 177,-70 175,-73 172,-78 171,-83 169,-87 166,-91 164,-96 161,-99 158,-104 156,-108 153,-112 151,-116 147,-119 144,-124 140,-127 138,-130 -5131,-5259 -8,7347 z" id="path10381"/>
            <path inkscape:connector-curvature="0" style="fill:none;stroke:#83b0e9" d="m 5672,16189 0,0 z" id="path10383"/>
            <path inkscape:connector-curvature="0" style="fill:none;stroke:#83b0e9" d="m 20367,1495 0,0 z" id="path10385"/>
            <rect style="fill:none;stroke:none" class="BoundingBox" x="5671" y="1494" width="14698" height="14697" id="rect10390"/>
            <path inkscape:connector-curvature="0" style="fill:#dbeefc;stroke:none" d="m 18139,14112 134,-135 132,-138 128,-141 124,-145 120,-147 116,-151 113,-154 108,-157 104,-159 100,-162 96,-164 92,-167 87,-170 83,-171 78,-174 74,-175 69,-178 65,-179 60,-181 55,-182 51,-184 45,-185 41,-186 36,-187 32,-187 26,-189 21,-189 17,-190 12,-190 6,-191 2,-190 -7347,28 5120,5270 z m -12467,2077 0,0 z m 14695,-14694 0,0 z" id="path10392"/>
            <path inkscape:connector-curvature="0" style="fill:none;stroke:#83b0e9" d="m 18139,14112 134,-135 132,-138 128,-141 124,-145 120,-147 116,-151 113,-154 108,-157 104,-159 100,-162 96,-164 92,-167 87,-170 83,-171 78,-174 74,-175 69,-178 65,-179 60,-181 55,-182 51,-184 45,-185 41,-186 36,-187 32,-187 26,-189 21,-189 17,-190 12,-190 6,-191 2,-190 -7347,28 5120,5270 z" id="path10394"/>
            <path inkscape:connector-curvature="0" style="fill:none;stroke:#83b0e9" d="m 5672,16189 0,0 z" id="path10396"/>
            <path inkscape:connector-curvature="0" style="fill:none;stroke:#83b0e9" d="m 20367,1495 0,0 z" id="path10398"/>
            <rect style="fill:none;stroke:none" class="BoundingBox" x="7893" y="3751" width="10200" height="10200" id="rect10403"/>
            <path inkscape:connector-curvature="0" style="fill:#99cef1;stroke:none" d="m 12992,3752 c 2890,0 5098,2208 5098,5098 0,2890 -2208,5098 -5098,5098 -2890,0 -5098,-2208 -5098,-5098 0,-2890 2208,-5098 5098,-5098 z m -5098,0 0,0 z m 10197,10197 0,0 z" id="path10405"/>
            <path inkscape:connector-curvature="0" style="fill:none;stroke:#65b6ed" d="m 12992,3752 c 2890,0 5098,2208 5098,5098 0,2890 -2208,5098 -5098,5098 -2890,0 -5098,-2208 -5098,-5098 0,-2890 2208,-5098 5098,-5098 z" id="path10407"/>
            <path inkscape:connector-curvature="0" style="fill:none;stroke:#65b6ed" d="m 7894,3752 0,0 z" id="path10409"/>
            <path inkscape:connector-curvature="0" style="fill:none;stroke:#65b6ed" d="m 18091,13949 0,0 z" id="path10411"/>
            <rect style="fill:none;stroke:none" class="BoundingBox" x="9297" y="2673" width="4499" height="3952" id="rect10416"/>
            <text class="TextShape" id="text10418" x="60.250393" y="-150.62598">
              <tspan style="font-weight:400;font-size:635px;font-family:'Liberation Sans', sans-serif" class="TextParagraph" font-size="635px" font-weight="400" id="tspan10420">
                <tspan class="TextPosition" x="10207.25" y="3223.3743" id="tspan10422">
                  <tspan style="fill:#000000;stroke:none" id="tspan10424">UC</tspan>
                </tspan>
              </tspan>
            </text>
            <rect style="fill:none;stroke:none" class="BoundingBox" x="14031" y="2573" width="4499" height="3952" id="rect10429"/>
            <text class="TextShape" id="text10431">
              <tspan style="font-weight:400;font-size:635px;font-family:'Liberation Sans', sans-serif" class="TextParagraph" font-size="635px" font-weight="400" id="tspan10433">
                <tspan class="TextPosition" x="14881" y="3274" id="tspan10435">
                  <tspan style="fill:#000000;stroke:none" id="tspan10437">UC</tspan>
                </tspan>
              </tspan>
            </text>
            <rect style="fill:none;stroke:none" class="BoundingBox" x="17383" y="10906" width="2033" height="1398" id="rect10442"/>
            <text class="TextShape" id="text10444" x="60.250393" y="-241.00157">
              <tspan style="font-weight:400;font-size:635px;font-family:'Liberation Sans', sans-serif" class="TextParagraph" font-size="635px" font-weight="400" id="tspan10446">
                <tspan class="TextPosition" x="18293.25" y="11365.998" id="tspan10448">
                  <tspan style="fill:#000000;stroke:none" id="tspan10450">UC</tspan>
                </tspan>
              </tspan>
            </text>
            <rect style="fill:none;stroke:none" class="BoundingBox" x="14108" y="14008" width="2133" height="1217" id="rect10455"/>
            <text class="TextShape" id="text10457" x="-80.481659" y="148.04166">
              <tspan style="font-weight:400;font-size:635px;font-family:'Liberation Sans', sans-serif" class="TextParagraph" font-size="635px" font-weight="400" id="tspan10459">
                <tspan class="TextPosition" x="14877.519" y="14857.042" id="tspan10461">
                  <tspan style="fill:#000000;stroke:none" id="tspan10463">UC</tspan>
                </tspan>
              </tspan>
            </text>
            <rect style="fill:none;stroke:none" class="BoundingBox" x="17484" y="5926" width="2313" height="3952" id="rect10468"/>
            <text class="TextShape" id="text10470" y="75.312996">
              <tspan style="font-weight:400;font-size:635px;font-family:'Liberation Sans', sans-serif" class="TextParagraph" font-size="635px" font-weight="400" id="tspan10472">
                <tspan class="TextPosition" x="18334" y="6702.313" id="tspan10474">
                  <tspan style="fill:#000000;stroke:none" id="tspan10476">UC</tspan>
                </tspan>
              </tspan>
            </text>
            <rect style="fill:none;stroke:none" class="BoundingBox" x="9097" y="14032" width="3207" height="963" id="rect10481"/>
            <text class="TextShape" id="text10483" x="195.81378" y="120.50079">
              <tspan style="font-weight:400;font-size:635px;font-family:'Liberation Sans', sans-serif" class="TextParagraph" font-size="635px" font-weight="400" id="tspan10485">
                <tspan class="TextPosition" x="10142.813" y="14853.501" id="tspan10487">
                  <tspan style="fill:#000000;stroke:none" id="tspan10489">UC</tspan>
                </tspan>
              </tspan>
            </text>
            <rect style="fill:none;stroke:none" class="BoundingBox" x="5953" y="10637" width="4499" height="3953" id="rect10494"/>
            <text class="TextShape" id="text10496">
              <tspan style="font-weight:400;font-size:635px;font-family:'Liberation Sans', sans-serif" class="TextParagraph" font-size="635px" font-weight="400" id="tspan10498">
                <tspan class="TextPosition" x="6803" y="11338" id="tspan10500">
                  <tspan style="fill:#000000;stroke:none" id="tspan10502">UC</tspan>
                </tspan>
              </tspan>
            </text>
            <rect style="fill:none;stroke:none" class="BoundingBox" x="6000" y="5812" width="4499" height="3952" id="rect10507"/>
            <text class="TextShape" id="text10509" x="-120.50079" y="165.68858">
              <tspan style="font-weight:400;font-size:635px;font-family:'Liberation Sans', sans-serif" class="TextParagraph" font-size="635px" font-weight="400" id="tspan10511">
                <tspan class="TextPosition" x="6729.499" y="6678.688" id="tspan10513">
                  <tspan style="fill:#000000;stroke:none" id="tspan10515">UC</tspan>
                </tspan>
              </tspan>
            </text>
            <rect style="fill:none;stroke:none" class="BoundingBox" x="9763" y="4683" width="6785" height="2048" id="rect10520"/>
            <text class="TextShape" id="text10522">
              <tspan style="font-weight:400;font-size:635px;font-family:'Liberation Sans', sans-serif" class="TextParagraph" font-size="635px" font-weight="400" id="tspan10524">
                <tspan class="TextPosition" x="10613" y="5384" id="tspan10526">
                  <tspan style="fill:#000000;stroke:none" id="tspan10528">Domain Services</tspan>
                </tspan>
              </tspan>
            </text>
            <rect style="fill:none;stroke:none" class="BoundingBox" x="11471" y="8786" width="4499" height="3952" id="rect10533"/>
            <text class="TextShape" id="text10535">
              <tspan style="font-weight:400;font-size:635px;font-family:'Liberation Sans', sans-serif" class="TextParagraph" font-size="635px" font-weight="400" id="tspan10537">
                <tspan class="TextPosition" x="12321" y="9487" id="tspan10539">
                  <tspan style="fill:#000000;stroke:none" id="tspan10541">Asfsaf</tspan>
                </tspan>
              </tspan>
            </text>
            <rect style="fill:none;stroke:none" class="BoundingBox" x="10293" y="6151" width="5397" height="5397" id="rect10546"/>
            <path inkscape:connector-curvature="0" style="fill:#4795cc;stroke:none" d="m 12990,6152 c 1529,0 2697,1167 2697,2696 0,1529 -1168,2697 -2697,2697 -1529,0 -2696,-1168 -2696,-2697 0,-1529 1167,-2696 2696,-2696 z m -2696,0 0,0 z m 5394,5394 0,0 z" id="path10548"/>
            <path inkscape:connector-curvature="0" style="fill:none;stroke:#3465a4" d="m 12990,6152 c 1529,0 2697,1167 2697,2696 0,1529 -1168,2697 -2697,2697 -1529,0 -2696,-1168 -2696,-2697 0,-1529 1167,-2696 2696,-2696 z" id="path10550"/>
            <path inkscape:connector-curvature="0" style="fill:none;stroke:#3465a4" d="m 10294,6152 0,0 z" id="path10552"/>
            <path inkscape:connector-curvature="0" style="fill:none;stroke:#3465a4" d="m 15688,11546 0,0 z" id="path10554"/>
            <rect style="fill:none;stroke:none" class="BoundingBox" x="10271" y="8324" width="6224" height="1794" id="rect10559"/>
            <text class="TextShape" id="text10561" x="-154.27074" y="15.062598">
              <tspan style="font-weight:400;font-size:635px;font-family:'Liberation Sans', sans-serif" class="TextParagraph" font-size="635px" font-weight="400" id="tspan10563">
                <tspan class="TextPosition" x="10966.729" y="9040.0625" id="tspan10565">
                  <tspan style="fill:#ffffff;stroke:none" id="tspan10567">Domain Model</tspan>
                </tspan>
              </tspan>
            </text>
            <rect style="fill:none;stroke:none" class="BoundingBox" x="9155" y="11695" width="7166" height="1906" id="rect10572"/>
            <text class="TextShape" id="text10574">
              <tspan style="font-weight:400;font-size:635px;font-family:'Liberation Sans', sans-serif" class="TextParagraph" font-size="635px" font-weight="400" id="tspan10576">
                <tspan class="TextPosition" x="10005" y="12396" id="tspan10578">
                  <tspan style="fill:#000000;stroke:none" id="tspan10580">Repository Interfaces</tspan>
                </tspan>
              </tspan>
            </text>
            <path inkscape:connector-curvature="0" style="opacity:1;fill:#e9d9c9;fill-opacity:1;fill-rule:nonzero;stroke:#333333;stroke-width:23.48089027;stroke-linecap:round;stroke-linejoin:miter;stroke-miterlimit:4;stroke-dasharray:none;stroke-dashoffset:0;stroke-opacity:1" d="m 7950.0445,8625.3716 0,169.0578 -949.799,0 0,91.4465 949.799,0 0,166.3568 725.455,-214.4779 -725.455,-212.3832 z" id="rect16997-2"/>
            <path inkscape:connector-curvature="0" style="opacity:1;fill:#e9d9c9;fill-opacity:1;fill-rule:nonzero;stroke:#333333;stroke-width:23.48089027;stroke-linecap:round;stroke-linejoin:miter;stroke-miterlimit:4;stroke-dasharray:none;stroke-dashoffset:0;stroke-opacity:1" d="m 9991.9322,8625.8538 0,169.0578 -949.7987,0 0,91.4465 949.7987,0 0,166.3568 725.4538,-214.4779 -725.4538,-212.3832 z" id="rect16997-9-5"/>
            <path inkscape:connector-curvature="0" style="opacity:1;fill:#e9d9c9;fill-opacity:1;fill-rule:nonzero;stroke:#333333;stroke-width:23.48089027;stroke-linecap:round;stroke-linejoin:miter;stroke-miterlimit:4;stroke-dasharray:none;stroke-dashoffset:0;stroke-opacity:1" d="m 5901.6625,8625.8538 0,169.0578 -949.7993,0 0,91.4465 949.7993,0 0,166.3568 725.454,-214.4779 -725.454,-212.3832 z" id="rect16997-7-8"/>
          </g>
        </g>
      </g>
    </g>
  </g>
</svg>