<?xml version="1.0" encoding="UTF-8" standalone="no"?>
<svg
   width="48"
   height="48"
   viewBox="0 0 12.7 12.7"
   version="1.1"
   id="svg8"
   sodipodi:docname="signalr.svg"
   inkscape:version="1.3 (0e150ed6c4, 2023-07-21)"
   xmlns:inkscape="http://www.inkscape.org/namespaces/inkscape"
   xmlns:sodipodi="http://sodipodi.sourceforge.net/DTD/sodipodi-0.dtd"
   xmlns="http://www.w3.org/2000/svg"
   xmlns:svg="http://www.w3.org/2000/svg">
  <defs
     id="defs1" />
  <sodipodi:namedview
     id="namedview1"
     pagecolor="#505050"
     bordercolor="#ffffff"
     borderopacity="1"
     inkscape:showpageshadow="0"
     inkscape:pageopacity="0"
     inkscape:pagecheckerboard="1"
     inkscape:deskcolor="#d1d1d1"
     inkscape:document-units="px"
     inkscape:zoom="12.535589"
     inkscape:cx="8.8547894"
     inkscape:cy="41.122918"
     inkscape:window-width="1920"
     inkscape:window-height="1027"
     inkscape:window-x="-8"
     inkscape:window-y="-8"
     inkscape:window-maximized="1"
     inkscape:current-layer="svg8" />
  <g
     id="g1"
     transform="matrix(1.2824723,0,0,1.2824723,-1.7936993,-1.7936993)">
    <circle
       style="fill:#f9f9f9;stroke-width:0.48695;stroke-linecap:round;stroke-miterlimit:15.9;paint-order:markers stroke fill"
       id="path1"
       cx="6.3499999"
       cy="6.3499999"
       r="4.4554114" />
    <g
       id="layer1"
       transform="matrix(0.03602886,0,0,0.03602886,2.5002356,2.4518889)">
      <path
         id="path3715"
         d="M 88.511782,153.29356 99.636328,126.2339 h 24.955012 c 9.92193,0 18.03977,-8.11796 18.03977,-18.03978 0,-9.92193 -8.11784,-18.03977 -18.03977,-18.03977 H 43.412353 L 88.511782,45.054917 v 18.03977 h 36.079558 c 24.95499,0 45.09942,20.14432 45.09942,45.099433 0,24.35364 -19.24238,43.89671 -42.99476,44.79876 l 36.6809,36.68079 c 25.85693,-18.03977 42.69409,-47.80534 42.69409,-81.47955 0,-54.720683 -44.49807,-99.2187426 -99.21875,-99.2187426 -54.720683,0 -99.2187501,44.4980596 -99.2187501,99.2187426 0,54.72057 44.4980671,99.21876 99.2187501,99.21876 10.82386,0 21.34705,-1.80398 30.9683,-5.11137 z"
         class="st0"
         style="fill:#00abec;stroke-width:3.00663" />
    </g>
  </g>
</svg>
