<?xml version="1.0" encoding="UTF-8" standalone="no"?>
<!-- Created with Inkscape (http://www.inkscape.org/) -->

<svg
   width="48"
   height="48"
   viewBox="0 0 12.7 12.7"
   version="1.1"
   id="svg1"
   xml:space="preserve"
   inkscape:version="1.3 (0e150ed6c4, 2023-07-21)"
   sodipodi:docname="sql.svg"
   xmlns:inkscape="http://www.inkscape.org/namespaces/inkscape"
   xmlns:sodipodi="http://sodipodi.sourceforge.net/DTD/sodipodi-0.dtd"
   xmlns="http://www.w3.org/2000/svg"
   xmlns:svg="http://www.w3.org/2000/svg"><sodipodi:namedview
     id="namedview1"
     pagecolor="#505050"
     bordercolor="#ffffff"
     borderopacity="1"
     inkscape:showpageshadow="0"
     inkscape:pageopacity="0"
     inkscape:pagecheckerboard="1"
     inkscape:deskcolor="#d1d1d1"
     inkscape:document-units="px"
     inkscape:zoom="16"
     inkscape:cx="13.625"
     inkscape:cy="21.46875"
     inkscape:window-width="1920"
     inkscape:window-height="1027"
     inkscape:window-x="-8"
     inkscape:window-y="-8"
     inkscape:window-maximized="1"
     inkscape:current-layer="layer1" /><defs
     id="defs1" /><g
     inkscape:label="Layer 1"
     inkscape:groupmode="layer"
     id="layer1"><g
       id="g1"
       transform="matrix(1.1929156,0,0,1.1929156,-0.84642315,-0.78159112)"><path
         style="fill:#02a7e7"
         d="M 6.0299514,10.833437 C 5.8400813,10.793401 5.6777478,10.724607 5.5503191,10.630179 5.4651233,10.567047 5.2554344,10.362263 5.1913797,10.279636 5.0100873,10.045779 4.9247747,9.7331101 4.9618624,9.4384604 4.9798881,9.2952526 5.0093636,9.1967236 5.0705758,9.0750599 5.2620494,8.6944923 5.6422724,8.4514235 6.0853998,8.4263038 c 0.092312,-0.00523 0.1175357,-0.00211 0.1973436,0.024438 0.2230469,0.074194 0.3273039,0.019548 0.4513807,-0.2365891 0.2144388,-0.4426756 0.5127597,-0.716989 0.9642769,-0.8866764 0.1770702,-0.066546 0.3195824,-0.093203 0.5390817,-0.1008364 0.1573073,-0.00547 0.2113,-0.00258 0.3292804,0.017614 0.4130607,0.070708 0.7136338,0.2386891 1.0588793,0.5917764 0.1848029,0.1890004 0.2859243,0.3292728 0.3805446,0.5278789 0.06486,0.1361327 0.12197,0.3244886 0.143453,0.4730943 0.02353,0.1627337 0.0162,0.4278582 -0.01623,0.5875 -0.01539,0.075769 -0.02491,0.1425934 -0.02116,0.1484974 0.0038,0.0059 0.05782,0.012925 0.120143,0.015602 0.165354,0.0071 0.246199,0.049413 0.417956,0.2187371 0.189196,0.1865152 0.235621,0.294117 0.224705,0.520812 -0.0048,0.09947 -0.01043,0.122905 -0.04881,0.202685 -0.07422,0.154317 -0.203202,0.25767 -0.377042,0.302131 -0.09146,0.02339 -0.123506,0.02372 -2.2047875,0.02291 -2.0029518,-7.85e-4 -2.1172726,-0.0019 -2.2144701,-0.02244 z M 4.4095975,9.9551192 C 4.3934275,9.9525789 4.2664193,9.9344117 4.1273571,9.9147478 3.6823964,9.8518286 3.2920561,9.7558591 2.9748756,9.6313976 2.7621049,9.5479064 2.5274475,9.431961 2.4002534,9.3474738 2.2832071,9.2697272 2.035474,9.0273321 1.9640977,8.920716 1.8997522,8.824602 1.8437922,8.6794296 1.8218674,8.5517392 1.8031842,8.4429286 1.8035552,8.5395306 1.8130612,6.2585361 1.8173875,5.2204207 1.8172882,4.0614711 1.8128406,3.6830926 1.8025767,2.8099022 1.8088153,2.6020993 1.8486759,2.489451 1.9496817,2.2040026 2.1361861,2.0219542 2.5305497,1.8238683 2.9535921,1.6113773 3.4007066,1.4872913 4.033277,1.4068224 5.2215288,1.2556655 6.3322047,1.3677744 7.2437614,1.7308807 c 0.1901839,0.075757 0.4669914,0.2263732 0.6046284,0.3289892 0.116395,0.086779 0.330206,0.3081783 0.3811936,0.3947223 0.099173,0.1683325 0.141562,0.3731598 0.1252492,0.6052195 -0.00477,0.067914 -0.00767,0.9338816 -0.00644,1.9243723 0.00247,1.9885874 0.00728,1.8608326 -0.07177,1.9089027 -0.039201,0.02384 -0.054659,0.027692 -0.2860994,0.071306 C 7.8300872,6.9946256 7.5778962,7.0775283 7.4378016,7.1460883 7.1060727,7.3084312 6.8289538,7.5586576 6.5962935,7.9059339 6.4660937,8.1002742 6.4601044,8.1037115 6.217838,8.123129 5.9045549,8.1482384 5.6978258,8.2008407 5.479759,8.3109335 5.0724192,8.5165823 4.7972886,8.8864652 4.6921951,9.3697267 c -0.01581,0.072698 -0.029438,0.193694 -0.036027,0.3198455 -0.010798,0.2067395 -0.018185,0.2400812 -0.057907,0.2613394 -0.021554,0.011535 -0.127046,0.013888 -0.1886639,0.00421 z M 6.085726,6.9518491 C 6.0899029,6.9450908 6.0002511,6.8493262 5.8864998,6.7390389 5.7727485,6.6287516 5.6796792,6.5316632 5.6796792,6.5232869 c 0,-0.00838 0.021432,-0.040943 0.047626,-0.07237 C 5.7861341,6.3803345 5.86091,6.2309022 5.8883041,6.1291759 5.9039139,6.0712098 5.9088482,6.0072613 5.9087208,5.8645755 5.9085278,5.6485179 5.8953696,5.5842556 5.8184221,5.4235749 5.7793207,5.3419239 5.7519988,5.3051843 5.6692559,5.2229921 5.5591165,5.1135857 5.4608706,5.0561607 5.3151187,5.015998 5.2078414,4.9864371 4.9288267,4.9863809 4.8211981,5.0158985 4.5310047,5.0954852 4.312514,5.3117288 4.2292353,5.601773 c -0.1227736,0.4275977 0.041207,0.8744726 0.3864843,1.0532349 0.1587048,0.082167 0.2410127,0.1006006 0.4557278,0.102064 l 0.1855693,0.00126 0.1034911,0.1029002 0.103491,0.1029001 h 0.3070665 c 0.2008198,0 0.3096941,-0.00425 0.3146607,-0.012288 z M 4.9585998,6.3002981 C 4.8026141,6.2446666 4.7150166,6.0285562 4.7481318,5.7810558 4.7707964,5.6116623 4.8304205,5.5101473 4.9355044,5.4620383 c 0.05302,-0.024273 0.077487,-0.028488 0.1436778,-0.024748 0.1276954,0.00722 0.2021366,0.070573 0.2543059,0.2164406 0.02692,0.075269 0.036619,0.2915511 0.01707,0.3806353 -0.046986,0.2141162 -0.2159032,0.328721 -0.3919583,0.2659319 z M 3.6099164,6.7345747 C 3.7901461,6.6943543 3.9331736,6.6026282 4.006319,6.4803545 4.1306971,6.2724376 4.0935563,6.0125895 3.9172734,5.8573653 3.8458345,5.7944604 3.7643883,5.7475884 3.5922764,5.6703308 3.3912521,5.5800949 3.3376638,5.516988 3.3938931,5.4367094 c 0.058847,-0.084017 0.2866602,-0.079054 0.4973695,0.010835 0.04232,0.018054 0.081002,0.030318 0.08596,0.027254 0.00496,-0.00306 0.00901,-0.097683 0.00901,-0.2102637 0,-0.2368492 0.012481,-0.2149105 -0.1411201,-0.2480505 C 3.7681005,4.9998682 3.695207,4.9949792 3.527592,4.9951872 3.3226681,4.995441 3.3044599,4.9973172 3.2141007,5.0274032 2.9318826,5.1213872 2.7837783,5.341686 2.8218569,5.6108504 c 0.030445,0.2152064 0.1593187,0.33999 0.4881748,0.4726819 0.1230689,0.049658 0.1822803,0.1057165 0.1822803,0.1725751 0,0.1470761 -0.2350334,0.1563694 -0.5111937,0.020213 -0.070946,-0.034979 -0.1318043,-0.0608 -0.1352402,-0.057381 -0.00344,0.00342 -0.0079,0.1007155 -0.00992,0.2162132 -0.00339,0.1938965 -0.00195,0.2117201 0.018816,0.2324857 0.025715,0.025715 0.1694663,0.067222 0.2906189,0.083913 0.1136601,0.015659 0.358354,0.00672 0.4645206,-0.016976 z M 7.2614014,6.5290164 V 6.3349762 L 6.973281,6.3285689 c -0.1584662,-0.00352 -0.2894434,-0.00749 -0.2910604,-0.00882 -0.00162,-0.00133 -0.00294,-0.2901792 -0.00294,-0.6418937 0,-0.5288914 -0.0028,-0.6418065 -0.016204,-0.6529289 -0.011281,-0.00936 -0.088995,-0.012479 -0.2557804,-0.01026 l -0.2395764,0.00319 -0.00304,0.8408411 c -0.00167,0.4624627 -4.963e-4,0.8475091 0.00262,0.8556588 0.00446,0.011683 0.1207792,0.014171 0.5498836,0.01176 l 0.5442247,-0.00306 z M 5.5561991,3.1714532 C 5.9411286,3.134646 6.2927778,3.0647836 6.7175411,2.9407284 7.0662296,2.8388915 7.1948084,2.7555246 7.2396786,2.602189 7.260654,2.5305095 7.2546814,2.4329599 7.225911,2.3773241 7.1767942,2.2823427 6.545684,2.0772264 6.1089198,2.0142922 5.7673931,1.965081 5.4960803,1.9512119 5.0152383,1.9583851 4.535164,1.9655468 4.3091532,1.9840809 3.9964538,2.041931 3.6669133,2.1028966 3.1780655,2.2688042 3.0430098,2.3655155 2.9044581,2.4647301 2.8580227,2.6208962 2.9251909,2.7617495 c 0.029386,0.061623 0.122411,0.1050636 0.3966051,0.1852067 0.420875,0.1230158 0.8414748,0.202495 1.2171617,0.2300025 0.093786,0.00687 0.1916883,0.014558 0.2175603,0.017092 0.096801,0.00948 0.6183581,-0.00526 0.7996811,-0.022597 z"
         id="path2" /><path
         style="fill:#007dad"
         d="m 6.3323601,10.843877 c -0.2450035,-0.0063 -0.2815386,-0.01 -0.3878824,-0.03889 -0.1371986,-0.03734 -0.3070539,-0.118879 -0.4006534,-0.192342 -0.036338,-0.02852 -0.064056,-0.05387 -0.061596,-0.05633 0.00246,-0.0025 0.051862,0.01895 0.109782,0.04758 0.1583832,0.07829 0.2844626,0.110117 0.4927505,0.124375 0.1144185,0.0078 0.8820992,0.01071 2.1703618,0.0081 1.8555384,-0.0037 1.9982004,-0.0054 2.0638834,-0.02452 0.277404,-0.08079 0.431512,-0.27858 0.432366,-0.554915 2.57e-4,-0.08331 -0.0061,-0.124614 -0.02975,-0.1940399 -0.01654,-0.04851 -0.02907,-0.089235 -0.02785,-0.090501 0.0149,-0.015362 0.10759,0.1151122 0.136316,0.1918909 0.128901,0.344518 -0.06218,0.696968 -0.417,0.769145 -0.05359,0.0109 -0.5201002,0.01471 -1.9404029,0.01585 -1.0284162,8.24e-4 -1.9915639,-0.0016 -2.1403281,-0.0054 z M 4.3978375,9.9433456 C 4.3816675,9.9407978 4.2731813,9.9254564 4.1567572,9.9092535 3.7171266,9.8480699 3.3542891,9.7625228 3.0363645,9.6450959 2.750553,9.5395301 2.3724989,9.340386 2.2984019,9.2563662 c -0.016654,-0.018884 0.0051,-0.010622 0.076713,0.02913 0.3856239,0.2140694 0.8248149,0.3647815 1.3364196,0.4586035 0.1416139,0.02597 0.5160742,0.078871 0.6569031,0.092802 0.063344,0.00627 0.120346,-0.010771 0.1364003,-0.040769 0.00726,-0.013562 0.017488,-0.1125559 0.022732,-0.2199857 C 4.5489188,9.1387951 4.6678692,8.8121386 4.9105135,8.5245234 5.0402118,8.3707874 5.2739021,8.208341 5.485639,8.1247334 5.6741933,8.0502797 5.8426324,8.0151886 6.0868899,7.9994739 6.1817069,7.9933737 6.270049,7.9814876 6.2926902,7.9717843 6.3453211,7.9492282 6.3901766,7.8994664 6.485452,7.7579381 6.7370548,7.3841908 7.0587569,7.1169311 7.4413354,6.9638212 7.6259859,6.8899231 7.7736295,6.8507806 8.0167658,6.8112661 c 0.098661,-0.016034 0.153649,-0.048072 0.1819439,-0.1060046 0.018609,-0.038101 0.02012,-0.1834157 0.021345,-2.0519676 l 0.00132,-2.0109627 -0.025,-0.0882 C 8.1826229,2.505621 8.1558062,2.4346321 8.1367804,2.396378 8.1177546,2.358124 8.1041942,2.324819 8.1066462,2.3223671 8.117932,2.3110812 8.2089346,2.4329303 8.2521086,2.517136 8.3206525,2.6508223 8.3423141,2.7586274 8.3422465,2.9657316 8.3412397,6.047629 8.3373064,6.7888188 8.3217606,6.826025 8.2962122,6.887171 8.2568821,6.9041503 8.0542714,6.9415029 7.6104204,7.0233298 7.2836411,7.1766729 6.973281,7.4487639 6.8436438,7.562416 6.7226187,7.7041265 6.5910805,7.8962891 6.4532896,8.0975862 6.4443953,8.1026189 6.2014812,8.1167368 5.9186925,8.1331723 5.7397114,8.1772036 5.509159,8.2870557 5.0767139,8.4931043 4.7837617,8.8773252 4.6810013,9.3732245 c -0.014419,0.069583 -0.029683,0.2055402 -0.035894,0.3197051 -0.010866,0.19974 -0.018993,0.2376061 -0.053865,0.2509879 -0.019953,0.00766 -0.1434989,0.00729 -0.1934048,-5.719e-4 z M 10.033736,9.5688627 C 9.9717507,9.5422271 9.9649537,9.5069211 9.9941311,9.3631426 10.037018,9.1518079 10.048007,8.995122 10.032132,8.8213345 10.007915,8.5562299 9.9359862,8.3264739 9.8075236,8.1038869 9.7751402,8.0477762 9.748671,7.9972575 9.7487032,7.991623 c 2.02e-4,-0.035438 0.1658369,0.209629 0.2348964,0.3475438 0.1567674,0.3130711 0.2108184,0.7192746 0.1421964,1.0686335 -0.03426,0.1744299 -0.03952,0.1836377 -0.09206,0.1610624 z M 2.8583669,2.7282963 C 2.7773166,2.6423284 2.7478153,2.5073487 2.7858187,2.3963603 2.8063687,2.3363443 2.8801191,2.2572122 2.955926,2.2138398 3.0921522,2.1358991 3.45988,2.0075005 3.7157566,1.9485317 4.3295425,1.8070799 5.3330261,1.7844265 6.0265997,1.896365 c 0.4702976,0.075903 1.0058231,0.2568557 1.1185212,0.3779451 0.026976,0.028984 0.029123,0.034629 0.01044,0.027444 C 6.5872011,2.0831744 6.3399182,2.0215423 5.8217938,1.9693295 5.5327947,1.9402063 4.716301,1.9408429 4.4331175,1.9704123 3.9889283,2.0167936 3.6800092,2.0876486 3.3191141,2.2259248 3.1074674,2.3070168 3.0904614,2.3153542 3.0150447,2.3749968 2.9138239,2.4550465 2.8687845,2.5720992 2.8922165,2.6942147 c 0.00672,0.035004 0.010105,0.06575 0.00753,0.068325 -0.00257,0.00257 -0.021196,-0.012835 -0.04138,-0.034243 z"
         id="path1" /></g><path
       style="fill:#f9f9f9;stroke-width:0.159544;stroke-linecap:round;stroke-miterlimit:15.9;paint-order:markers stroke fill"
       d="m 19.786371,5.8093557 c -2.489807,-0.013952 -5.002745,0.2065982 -7.37172,1.0193704 -0.947941,0.3437563 -2.22805,0.6308071 -2.5535372,1.7335232 -0.178126,0.5877993 0.1073068,1.2665272 0.7271792,1.435561 2.50838,0.8859937 5.160638,1.4178267 7.822539,1.4995397 2.765547,0.06184 5.544801,-0.213873 8.205255,-0.994307 0.947633,-0.311701 2.132166,-0.476685 2.721728,-1.3748799 C 29.545729,8.6675196 29.675014,7.9908812 29.290985,7.5908629 27.992749,6.8241276 26.478477,6.5061198 25.016622,6.1940518 23.295519,5.8611669 21.534444,5.8124089 19.786371,5.8093557 Z"
       id="path3"
       transform="scale(0.26458333)" /><path
       style="fill:#f9f9f9;stroke-width:0.159544;stroke-linecap:round;stroke-miterlimit:15.9;paint-order:markers stroke fill"
       d="m 12.528263,19.535898 c -0.943763,-0.0477 -1.953411,0.201187 -2.5589792,0.979137 -0.8680924,0.99365 -0.6442727,2.769942 0.5542062,3.407849 0.581184,0.43786 1.408285,0.550344 1.87731,1.124737 0.171062,0.353905 -0.177723,0.693358 -0.536068,0.641765 -0.803441,0.03647 -1.501123,-0.429873 -2.2301816,-0.652153 -0.1302216,0.593279 -0.1664247,1.263586 -0.105037,1.883411 0.3423268,0.540712 1.1126776,0.593196 1.6949386,0.629398 1.149617,-0.01365 2.500875,0.0715 3.35228,-0.859754 0.522574,-0.475375 0.732287,-1.185173 0.624946,-1.876155 -0.0042,-1.117893 -1.08398,-1.719571 -1.956129,-2.15697 -0.38047,-0.268087 -0.981112,-0.407272 -1.175525,-0.855466 0.344455,-0.680412 1.216397,-0.416041 1.797997,-0.282133 0.288856,0.0266 0.644703,0.34475 0.898998,0.16308 0.0868,-0.624238 0.07144,-1.311102 -0.02955,-1.91146 C 14.052923,19.499048 13.259,19.560573 12.528263,19.535898 Z"
       id="path4"
       transform="scale(0.26458333)" /><path
       style="fill:#f9f9f9;stroke-width:0.11811;stroke-linecap:round;stroke-miterlimit:15.9;paint-order:markers stroke fill"
       d="m 19.330688,19.529663 c -1.210756,-0.08156 -2.342367,0.676121 -3.007202,1.643677 -1.154482,1.734497 -0.879011,4.3952 0.834961,5.671631 0.767292,0.599418 1.762733,0.779918 2.715576,0.723755 0.414066,-0.07383 0.749591,0.04107 0.983939,0.399076 0.276893,0.260044 0.507411,0.668965 0.951364,0.538424 0.830101,-0.02493 1.682405,0.0493 2.498901,-0.03638 -0.02148,-0.304863 -0.392402,-0.516022 -0.573108,-0.768864 -0.39533,-0.431186 -0.837197,-0.825816 -1.216808,-1.264461 0.552733,-0.775963 1.034472,-1.670178 0.984946,-2.65318 0.06239,-0.984843 -0.09493,-2.022516 -0.725425,-2.815693 -0.662275,-0.88295 -1.732609,-1.547765 -2.868652,-1.437938 -0.192832,-0.0011 -0.385659,-6.35e-4 -0.578492,-5e-5 z m 0.23816,2.101563 c 0.803529,-0.04622 1.356063,0.822544 1.267429,1.557736 -0.01056,0.609543 0.113319,1.312052 -0.353489,1.791995 -0.421556,0.601123 -1.4521,0.596662 -1.831177,-0.0376 -0.522188,-0.803635 -0.521152,-1.946621 -0.02991,-2.77185 0.207826,-0.316865 0.558995,-0.547736 0.947144,-0.540283 z"
       id="path6"
       transform="scale(0.26458333)" /><path
       style="fill:#f9f9f9;stroke-width:0.11811;stroke-linecap:round;stroke-miterlimit:15.9;paint-order:markers stroke fill"
       d="m 25.372925,19.590698 c -0.24364,0.05632 -0.623684,-0.09773 -0.786255,0.130127 -0.08531,2.436508 -0.102023,4.877861 -0.06921,7.315796 -0.08366,0.487939 0.375118,0.426465 0.708984,0.407105 1.45179,-0.01777 2.919498,0.03554 4.361341,-0.02666 0.09886,-0.527709 0.02195,-1.129187 0.03447,-1.685714 -0.0051,-0.327469 -0.467062,-0.146988 -0.678051,-0.207367 -0.635871,-0.02177 -1.271878,-0.03928 -1.907824,-0.05866 -0.04296,-1.920384 0.0086,-3.84884 -0.121338,-5.76416 -0.262647,-0.186492 -0.657029,-0.05788 -0.965576,-0.109619 -0.192173,-0.0023 -0.38436,-0.0025 -0.576538,-8.55e-4 z"
       id="path7"
       transform="scale(0.26458333)" /></g></svg>
