<?xml version="1.0" encoding="UTF-8" standalone="no"?>
<!-- Created with Inkscape (http://www.inkscape.org/) -->

<svg
   width="24"
   height="24"
   viewBox="0 0 6.3499999 6.3500002"
   version="1.1"
   id="svg5"
   inkscape:version="1.1.1 (3bf5ae0d25, 2021-09-20)"
   sodipodi:docname="sqlserver.svg"
   xmlns:inkscape="http://www.inkscape.org/namespaces/inkscape"
   xmlns:sodipodi="http://sodipodi.sourceforge.net/DTD/sodipodi-0.dtd"
   xmlns:xlink="http://www.w3.org/1999/xlink"
   xmlns="http://www.w3.org/2000/svg"
   xmlns:svg="http://www.w3.org/2000/svg">
  <sodipodi:namedview
     id="namedview7"
     pagecolor="#505050"
     bordercolor="#ffffff"
     borderopacity="1"
     inkscape:pageshadow="0"
     inkscape:pageopacity="0"
     inkscape:pagecheckerboard="1"
     inkscape:document-units="mm"
     showgrid="false"
     inkscape:zoom="5.6568543"
     inkscape:cx="22.804194"
     inkscape:cy="11.932427"
     inkscape:window-width="1920"
     inkscape:window-height="1027"
     inkscape:window-x="-8"
     inkscape:window-y="-8"
     inkscape:window-maximized="1"
     inkscape:current-layer="layer1"
     inkscape:snap-page="true"
     inkscape:snap-bbox="true"
     inkscape:bbox-nodes="true"
     units="px"
     inkscape:snap-global="false" />
  <defs
     id="defs2">
    <linearGradient
       inkscape:collect="always"
       id="linearGradient40870">
      <stop
         style="stop-color:#e9ebee;stop-opacity:1"
         offset="0"
         id="stop40866" />
      <stop
         style="stop-color:#919eaa;stop-opacity:1"
         offset="1"
         id="stop40868" />
    </linearGradient>
    <linearGradient
       inkscape:collect="always"
       id="linearGradient30151-7">
      <stop
         style="stop-color:#f16a5c;stop-opacity:1"
         offset="0"
         id="stop30147" />
      <stop
         style="stop-color:#e63d34;stop-opacity:1"
         offset="0.5"
         id="stop39351" />
      <stop
         style="stop-color:#a60230;stop-opacity:1"
         offset="1"
         id="stop30149" />
    </linearGradient>
    <radialGradient
       inkscape:collect="always"
       xlink:href="#linearGradient30151-7"
       id="radialGradient30603"
       gradientUnits="userSpaceOnUse"
       gradientTransform="matrix(1.228468,0.011757,-0.00984195,1.0285395,-42.018229,2.7027185)"
       cx="173.61224"
       cy="-152.24934"
       fx="173.61224"
       fy="-152.24934"
       r="30.774654" />
    <radialGradient
       inkscape:collect="always"
       xlink:href="#linearGradient40870"
       id="radialGradient40872"
       cx="177.18399"
       cy="-140.25891"
       fx="177.18399"
       fy="-140.25891"
       r="33.954054"
       gradientTransform="matrix(1.4438058,-0.01696615,0.02419764,2.0597562,-75.285806,152.37981)"
       gradientUnits="userSpaceOnUse" />
  </defs>
  <g
     inkscape:label="Warstwa 1"
     inkscape:groupmode="layer"
     id="layer1">
    <rect
       style="fill:#ffffff;stroke-width:0.0396875"
       id="rect3390"
       width="6.3499999"
       height="6.3499999"
       x="0"
       y="0" />
    <g
       id="g3286"
       transform="matrix(0.04269236,0,0,0.04269236,-3.7505731,8.8565469)">
      <path
         style="fill:url(#radialGradient40872);fill-opacity:1;stroke-width:0.194629"
         d="m 174.64626,-111.08056 c -13.66585,-1.28069 -22.65567,-4.50956 -26.88732,-9.65714 -1.13056,-1.37525 -1.64348,-2.77904 -1.64895,-4.51293 -0.003,-1.20798 0.086,-1.54873 0.77461,-2.93573 0.95548,-1.9248 2.73569,-3.90584 5.80925,-6.46461 2.42971,-2.02274 6.24725,-5.6287 8.2105,-7.75542 3.21896,-3.48701 6.10427,-8.23782 7.03318,-11.58046 0.58487,-2.10464 0.71553,-5.45874 0.29858,-7.66483 -0.7584,-4.01269 -2.01411,-5.98351 -6.84908,-10.7495 -3.8099,-3.75557 -4.00179,-4.05236 -3.2832,-5.07828 0.6917,-0.98755 4.18242,-2.94153 8.3755,-4.68829 2.74269,-1.14257 7.46351,-2.85908 7.55353,-2.7465 0.0345,0.0433 0.34729,0.94821 0.69492,2.01102 1.18702,3.62927 4.60045,10.52102 5.36306,10.82807 0.21687,0.0873 1.31394,0.30314 2.43792,0.4796 13.14766,2.06422 21.98958,5.68151 27.46643,11.23672 1.23363,1.25126 3.81587,4.5774 4.02181,5.18039 0.0306,0.0895 -0.62629,0.27047 -1.45972,0.40207 -2.84302,0.4489 -9.09864,1.79422 -13.67965,2.94192 -5.08758,1.2746 -11.50957,3.06487 -11.71143,3.26482 -0.072,0.0714 -0.008,1.04936 0.14176,2.17334 0.55159,4.13318 0.28511,11.42081 -0.60849,16.64081 -0.79788,4.66081 -3.19511,11.31525 -6.15252,17.07873 l -0.97374,1.89762 -1.10107,-0.023 c -0.60558,-0.0126 -2.32723,-0.13794 -3.82588,-0.27839 z m 4.67164,-1.30427 c 0.33017,-0.81588 2.23771,-6.02455 2.23771,-6.1102 0,-0.0243 -0.75284,0.30369 -1.67298,0.72879 -2.39768,1.10773 -6.29557,2.35755 -10.00478,3.20792 -1.76626,0.40493 -3.28009,0.79333 -3.36406,0.86308 -0.17057,0.14171 10.63378,2.02518 12.14991,2.11803 0.20219,0.0123 0.44233,-0.28408 0.6542,-0.80762 z m -8.40201,-3.54445 c 3.44331,-1.01279 7.18018,-2.1357 8.30417,-2.49535 l 2.0436,-0.65389 -1.16778,-0.14477 c -2.36946,-0.29371 -6.01076,-1.1184 -8.14338,-1.84432 l -2.19335,-0.74659 -1.12572,1.71049 c -0.61915,0.94076 -1.90186,2.6792 -2.85047,3.86318 -1.05347,1.31488 -1.60854,2.1527 -1.42618,2.1527 0.1642,0 3.11581,-0.82865 6.55911,-1.84145 z m -6.5769,-0.64008 c 3.20434,-5.08668 3.23845,-5.14637 2.87547,-5.03231 -0.88686,0.27867 -7.99814,2.27016 -10.20995,2.85925 l -2.46065,0.65539 0.61168,0.37358 c 1.72841,1.05562 6.78071,3.18804 7.64457,3.22652 0.12147,0.006 0.81397,-0.93168 1.53888,-2.08243 z m -3.31678,-4.5966 c 2.56911,-0.90272 4.92116,-1.73896 5.22677,-1.85832 l 0.55568,-0.21703 -1.52881,-0.99709 c -0.84085,-0.54839 -2.19061,-1.6405 -2.99944,-2.42691 l -1.47062,-1.42984 -2.82482,3.45167 c -3.61853,4.42152 -4.51434,5.6262 -4.36425,5.86906 0.0764,0.12362 0.60582,0.021 1.42791,-0.27689 0.71856,-0.26035 3.40847,-1.21194 5.97758,-2.11465 z m -6.45717,-0.86319 c 0.94451,-1.35924 2.36407,-3.38734 3.15458,-4.5069 0.79051,-1.11956 1.41733,-2.05551 1.39294,-2.07989 -0.0639,-0.0639 -10.69816,2.45043 -10.80172,2.55398 -0.20375,0.20376 0.65123,2.24568 1.43437,3.42565 0.80584,1.21415 2.61607,3.11059 2.94826,3.08868 0.0849,-0.006 0.92708,-1.12227 1.87157,-2.48152 z m 27.79463,1.03197 c 0.74269,-2.35462 2.08973,-7.0613 2.22061,-7.75894 l 0.13463,-0.71763 -3.47728,1.73355 c -1.91252,0.95346 -4.92242,2.37262 -6.68868,3.1537 -1.76625,0.78108 -3.27903,1.47663 -3.3617,1.54568 -0.32597,0.27219 4.56703,2.00969 7.9355,2.81791 2.73018,0.65507 2.79065,0.64061 3.23692,-0.77427 z m -10.2422,-8.95294 c 1.79162,-3.73131 1.87559,-3.51363 -0.92175,-2.39011 -1.31358,0.52758 -3.74588,1.36221 -5.40509,1.85473 -1.65922,0.49252 -3.09432,0.96211 -3.18913,1.04352 -0.27758,0.23835 2.69233,2.99573 4.60366,4.27418 l 1.75796,1.17589 0.96973,-1.71402 c 0.53335,-0.94271 1.51643,-2.85259 2.18462,-4.24419 z m 1.65296,4.18732 c 2.82273,-1.05515 6.54278,-2.56842 8.72797,-3.55041 l 2.20788,-0.99221 -2.49983,-0.80687 c -1.92489,-0.6213 -5.14178,-1.99298 -6.48973,-2.76721 -0.0535,-0.0307 -0.40385,0.79349 -0.7785,1.83162 -0.37467,1.03814 -1.25151,3.05286 -1.94854,4.47718 -0.76453,1.56223 -1.15062,2.54282 -0.97315,2.4716 0.1618,-0.0649 0.95105,-0.36359 1.7539,-0.6637 z m -21.39188,-2.44747 c 2.07786,-0.59524 4.49137,-1.29842 5.36335,-1.56263 l 1.58542,-0.48036 -0.45994,-0.95341 c -0.69429,-1.4392 -0.91125,-2.55471 -0.83282,-4.28199 0.0392,-0.86099 0.0559,-1.56543 0.0373,-1.56543 -0.17089,0 -4.01028,2.28831 -4.74809,2.82993 -1.24775,0.91592 -2.97684,2.83315 -3.76688,4.17673 -0.68484,1.16467 -1.35066,2.91943 -1.10773,2.91943 0.0833,0 1.85157,-0.48702 3.92943,-1.08227 z m 32.85502,-4.31869 c 0.23943,-1.64597 0.644,-7.46934 0.52703,-7.5863 -0.0399,-0.0399 -0.58629,0.28982 -1.21426,0.73266 -1.4157,0.99834 -4.88716,3.07438 -6.51446,3.89584 -1.21393,0.61279 -1.21712,0.61662 -0.78592,0.94187 1.26125,0.95137 6.69185,3.48083 7.54729,3.51539 0.12865,0.006 0.31254,-0.62104 0.44032,-1.49946 z m -22.41728,-1.77927 c 1.42814,-2.42105 3.57519,-6.49591 3.51091,-6.66328 -0.0943,-0.24553 -5.9184,2.68153 -6.05766,3.04442 -0.48438,1.26227 -0.29273,3.83488 0.41883,5.62207 l 0.30225,0.75918 0.36128,-0.44618 c 0.19871,-0.2454 0.8577,-1.28768 1.46439,-2.31621 z m 5.79646,1.04782 c 1.60569,-0.56609 3.44967,-1.22462 4.09771,-1.46339 l 1.17826,-0.43415 -1.05163,-0.99459 c -1.4297,-1.35216 -2.84587,-3.27941 -3.48702,-4.74548 -0.2926,-0.66904 -0.57818,-1.21613 -0.63465,-1.21573 -0.0565,3.8e-4 -0.40076,0.76674 -0.7651,1.703 -0.70476,1.81109 -2.69653,5.90824 -3.69741,7.60575 -0.33177,0.56267 -0.6032,1.05825 -0.6032,1.10129 0,0.12326 1.79429,-0.43954 4.96304,-1.5567 z m 10.60731,-4.29419 c 2.51108,-1.22207 6.22912,-3.35932 6.22725,-3.57962 -5.9e-4,-0.0575 -0.81064,-0.51753 -1.80033,-1.02245 -0.98968,-0.50492 -2.74095,-1.48476 -3.89169,-2.17743 l -2.09227,-1.25936 v 1.17928 c 0,1.40607 -0.44763,4.53576 -0.94831,6.63023 -0.1983,0.82961 -0.30691,1.50831 -0.24136,1.50823 0.0655,-8e-5 1.30158,-0.57558 2.74671,-1.27888 z m -3.90217,-0.76956 c 0.53952,-2.15155 0.82583,-4.27033 0.75263,-5.56984 l -0.0619,-1.09834 -2.81124,1.11434 c -1.54618,0.6129 -2.84293,1.20943 -2.88167,1.32563 -0.0877,0.26311 0.91606,2.25206 1.59191,3.15432 0.94596,1.26286 2.68277,2.9642 2.85263,2.79434 0.0926,-0.0926 0.34354,-0.86681 0.55759,-1.72045 z m -8.86841,-7.02856 c 1.7006,-1.49591 4.10125,-3.92391 3.623,-3.66427 -1.34486,0.73009 -5.19967,3.62816 -5.7844,4.34876 -0.40142,0.49468 -1.1253,1.33155 -1.6086,1.8597 l -0.87875,0.96027 1.53468,-1.05759 c 0.84407,-0.58167 2.24541,-1.68277 3.11407,-2.44687 z m 19.00609,-0.25651 c -0.11953,-1.22631 -0.25377,-2.26612 -0.2983,-2.31065 -0.0445,-0.0446 -1.40185,0.34008 -3.01624,0.85472 -2.80965,0.89567 -2.92037,0.9504 -2.58751,1.27931 0.19125,0.18898 1.6177,1.13642 3.16986,2.10541 l 2.82213,1.76182 0.0637,-0.73047 c 0.035,-0.40176 -0.0341,-1.73381 -0.15363,-2.96014 z m -14.7019,0.74329 c 3.24314,-1.31404 3.30818,-1.35181 3.28179,-1.90575 -0.0148,-0.31083 -0.24923,-1.03229 -0.52094,-1.60325 -0.80044,-1.68211 -0.80432,-1.68463 -1.42671,-0.92622 -1.09227,1.33099 -3.12157,3.36054 -4.72258,4.72316 -2.92326,2.48802 -2.8086,2.33962 -1.28266,1.65973 0.74933,-0.33388 2.85133,-1.21032 4.6711,-1.94767 z m 6.35161,-4.15786 c 1.52661,-1.83967 3.47432,-4.34909 4.73367,-6.09882 l 0.74741,-1.03846 -1.63288,0.821 c -1.76769,0.88878 -6.36473,3.43007 -6.72097,3.71545 -0.15828,0.12679 -0.0903,0.49443 0.2446,1.32366 0.25507,0.63147 0.52001,1.68646 0.58879,2.34441 0.0984,0.94122 0.17416,1.14174 0.35542,0.94037 0.12671,-0.14078 0.88449,-1.04419 1.68396,-2.00761 z m 7.95365,-0.97419 c 1.87331,-0.57905 4.13684,-1.25901 5.03008,-1.51104 l 1.62405,-0.45823 -1.62405,-1.36965 c -1.67352,-1.41135 -4.2081,-3.30093 -4.57424,-3.4102 -0.11402,-0.0341 -0.75802,0.68259 -1.4311,1.59248 -1.70737,2.30806 -4.28946,5.24935 -5.89341,6.71325 l -1.35463,1.23633 2.40865,-0.87006 c 1.32475,-0.47854 3.94134,-1.34384 5.81465,-1.92288 z m -14.05418,-1.46191 c 0.0928,-0.23161 -1.91477,-1.42965 -2.07923,-1.24077 -0.0831,0.0954 -0.30749,0.61146 -0.49861,1.14669 -0.19114,0.53523 -0.65317,1.53014 -1.02678,2.21089 l -0.67925,1.23776 2.11372,-1.60688 c 1.16254,-0.88379 2.13911,-1.67024 2.17015,-1.74769 z m 25.10091,-4.81384 c 4.46519,-5.61422 5.63441,-7.24995 5.18229,-7.24995 -0.67319,0 -12.74669,4.38591 -13.74536,4.99323 -0.0792,0.0481 0.35879,0.50775 0.97314,1.02141 1.29068,1.07914 2.54261,2.40823 3.63851,3.8628 0.42342,0.56199 0.83266,1.02181 0.90942,1.02181 0.0768,0 1.44566,-1.64219 3.042,-3.6493 z m -21.7129,0.7782 c 1.17391,-2.42712 2.04609,-5.06518 1.54873,-4.68442 -1.07589,0.82368 -2.50298,2.00834 -4.15764,3.45135 l -1.88929,1.6476 0.91614,0.53332 c 0.50387,0.29334 1.17888,0.79417 1.50001,1.113 0.72503,0.7198 0.74829,0.69678 2.08205,-2.06085 z m 24.87412,1.78088 c 3.75689,-0.77376 8.8664,-1.55218 11.46919,-1.7473 l 1.83503,-0.13755 -1.93234,-1.88373 c -1.0628,-1.03605 -2.66653,-2.42785 -3.56387,-3.09289 -1.64004,-1.21552 -4.28108,-2.86943 -4.35978,-2.73028 -0.0233,0.041 -0.34664,0.68775 -0.71872,1.43707 -1.15568,2.32749 -2.9181,4.76058 -5.05533,6.97913 -1.76115,1.82816 -1.97025,2.11051 -1.46945,1.9842 0.32114,-0.081 2.02901,-0.44489 3.79527,-0.80865 z m -20.33877,-2.56438 c 0.96342,-0.53874 2.25827,-1.22652 2.87745,-1.5284 l 1.12579,-0.54888 -2.39088,-1.21116 c -1.31498,-0.66615 -2.44783,-1.21572 -2.51744,-1.22129 -0.0696,-0.006 -0.23446,0.4497 -0.36634,1.01169 -0.29045,1.23769 -0.93512,2.99529 -1.61041,4.39059 l -0.50006,1.03323 0.81511,-0.47312 c 0.44832,-0.26024 1.60337,-0.91393 2.56678,-1.45266 z m -4.23318,-4.94602 c 0.34789,-0.28701 0.63254,-0.56224 0.63254,-0.61162 0,-0.12612 -4.21829,-1.4459 -5.13938,-1.60797 l -0.7602,-0.13375 0.12597,1.04916 c 0.0693,0.57704 0.12673,2.12768 0.12767,3.44587 l 0.001,2.3967 2.18958,-2.00827 c 1.20427,-1.10455 2.47423,-2.24311 2.82212,-2.53012 z m 11.65132,-1.18772 c 1.08473,-2.14399 1.57843,-3.39152 1.91765,-4.84565 l 0.26622,-1.14117 -1.10305,0.62288 c -3.60764,2.03719 -7.92493,4.79463 -7.76199,4.95757 0.0481,0.0481 1.25947,0.67558 2.69198,1.39445 3.01674,1.51386 2.68134,1.59693 3.98919,-0.98808 z m 7.08174,-0.0729 c 1.23104,-0.3862 3.36258,-0.98535 4.73675,-1.33144 l 2.49851,-0.62924 -1.52536,-0.63779 c -2.80657,-1.1735 -8.66391,-3.11064 -9.40564,-3.11064 -0.0863,0 -0.2581,0.59119 -0.3818,1.31375 -0.28487,1.66385 -0.82966,3.51628 -1.54243,5.2448 l -0.55768,1.35239 1.9697,-0.74981 c 1.08335,-0.4124 2.97693,-1.0658 4.20795,-1.45202 z m -16.60945,-3.47229 c -0.10524,-1.72046 -0.58783,-4.51251 -0.82004,-4.74474 -0.18844,-0.18843 -5.92602,4.52546 -5.92602,4.86872 0,0.0901 0.37222,0.26085 0.82717,0.37948 0.45495,0.11863 1.92197,0.54185 3.26004,0.94052 1.33808,0.39866 2.51108,0.68408 2.60666,0.63426 0.097,-0.0505 0.12002,-0.96942 0.0522,-2.07824 z m 3.30501,0.76142 c 0.94819,-0.59893 2.90637,-1.66921 4.3515,-2.37841 l 2.62749,-1.28944 -2.7248,-0.52988 c -3.88203,-0.7549 -7.18478,-1.31475 -7.26763,-1.23192 -0.0391,0.0391 0.11032,0.62399 0.33183,1.29986 0.44272,1.35056 0.80121,3.35333 0.8035,4.48891 7.4e-4,0.40142 0.0358,0.72986 0.0778,0.72986 0.042,0 0.85211,-0.49004 1.80032,-1.08898 z m -8.11714,-4.15992 c 0.68901,-0.46664 1.59251,-1.04141 2.00777,-1.27729 l 0.75505,-0.42886 -2.88361,-0.53388 c -1.58598,-0.29361 -3.40535,-0.65202 -4.04302,-0.79645 -0.63769,-0.14443 -1.17809,-0.24392 -1.20092,-0.2211 -0.0228,0.0228 0.20325,0.61519 0.50237,1.31635 0.29913,0.70118 0.79081,2.03316 1.09264,2.95998 l 0.54878,1.68512 0.9841,-0.92773 c 0.54126,-0.51025 1.54783,-1.30952 2.23684,-1.77614 z m -5.74259,-1.19889 c -0.3917,-1.21726 -0.73352,-2.23724 -0.7596,-2.26659 -0.0261,-0.0294 -0.69486,-0.23016 -1.48618,-0.44624 -0.79134,-0.21605 -1.61396,-0.44364 -1.82805,-0.50572 -0.2141,-0.0621 0.40633,0.68047 1.37873,1.65013 0.9724,0.96966 2.10366,2.25039 2.51392,2.84605 0.41024,0.59568 0.77909,1.04987 0.81964,1.00931 0.0405,-0.0405 -0.24676,-1.06967 -0.63846,-2.28694 z m 10.68585,-3.52696 c -0.50656,-0.99019 -0.94885,-1.83825 -0.98286,-1.8846 -0.034,-0.0464 -0.30124,0.1058 -0.59387,0.33817 -0.29262,0.23236 -1.17163,0.85278 -1.95333,1.37872 l -1.4213,0.95625 1.4213,0.23978 c 0.7817,0.13186 2.07816,0.35053 2.88101,0.48592 0.80285,0.1354 1.48454,0.25514 1.51489,0.26612 0.0304,0.0113 -0.35927,-0.79018 -0.86584,-1.78036 z m -5.44256,-0.56739 c 0.97722,-0.55291 2.21001,-1.24638 2.73953,-1.54102 l 0.96279,-0.53574 -0.67084,-0.10919 c -0.36897,-0.0601 -1.37151,-0.20285 -2.22788,-0.3174 -1.81561,-0.24285 -5.9545,-1.04508 -7.48418,-1.45064 -0.58377,-0.15478 -1.0883,-0.25452 -1.12116,-0.22166 -0.093,0.093 5.06535,4.9104 5.39396,5.03738 0.50679,0.1958 0.59347,0.16479 2.40778,-0.86177 z m -5.65369,-0.0195 c -0.19511,-0.24248 -1.00591,-1.24969 -1.8018,-2.23824 -0.79589,-0.98856 -1.50612,-1.79738 -1.5783,-1.79738 -0.0721,0 -0.5406,0.36037 -1.04098,0.80081 -0.93174,0.82017 -1.57937,1.80136 -1.39057,2.10683 0.0918,0.14854 4.17331,1.20245 5.55424,1.43418 0.26761,0.0449 0.51481,0.0936 0.54934,0.10817 0.0345,0.0146 -0.0969,-0.17188 -0.29193,-0.41435 z m 9.20661,-3.55538 c -0.40613,-1.05834 -0.96921,-3.21748 -1.16132,-4.45302 l -0.2256,-1.45088 -2.7248,1.12501 c -1.49865,0.61874 -3.64444,1.59318 -4.76842,2.16541 l -2.04361,1.0404 0.87584,0.15183 c 0.4817,0.0836 2.80266,0.46934 5.15767,0.85742 2.35502,0.38807 4.31835,0.7408 4.36295,0.78383 0.22494,0.2171 0.63014,0.048 0.52729,-0.22 z"
         id="path2259-4-3"
         sodipodi:nodetypes="sscssssssssssscssssscsscsssssssssssscsscssssssscscssscsscssssssssscssscsssssssssscsssscsssssscscscssssccssssscssssscsssscsssssssscsscsssssscsssssssssscssscsssccssscssssssscsssssssscscsscsssssscsssssssssssscssssscsscsssssscscsscsscsscsccsccsscsssssscsssscsscsssssccsscssscsssscssssscsssssssssssssscsscssscscssssssscsccsscsssscssscss" />
      <path
         style="fill:#000000;stroke-width:0.117993"
         d="m 123.1196,-81.492683 -2.01476,-2.337928 -1.16608,-0.13681 c -3.47859,-0.408134 -6.02585,-2.222206 -7.50548,-5.345201 -0.80877,-1.707 -0.93958,-2.446299 -0.9375,-5.299218 0.001,-2.389176 0.0203,-2.604074 0.32041,-3.69179 0.9982,-3.61877 3.32246,-6.04428 6.65925,-6.94929 1.26291,-0.34252 4.10711,-0.43349 5.37246,-0.1718 2.89926,0.59957 5.35053,2.61804 6.50212,5.35406 1.01256,2.405776 1.24312,5.710497 0.59482,8.52664 -0.53806,2.337311 -1.78462,4.400145 -3.39805,5.623131 -0.77905,0.590515 -2.29142,1.350644 -3.13004,1.573172 l -0.5187,0.137632 0.75606,0.787273 c 0.41582,0.432993 1.48551,1.534875 2.37707,2.448621 0.89156,0.913746 1.62105,1.696924 1.62105,1.740395 0,0.04349 -0.79153,0.07905 -1.75894,0.07905 h -1.75894 z m -0.12197,-4.910254 c 2.60526,-0.552271 4.51429,-2.447926 5.23916,-5.202409 0.48519,-1.843684 0.48323,-4.498355 -0.005,-6.381329 -0.32602,-1.258174 -1.06013,-2.593525 -1.87224,-3.405645 -1.78538,-1.78539 -4.66837,-2.39364 -7.24526,-1.52862 -2.1501,0.72178 -3.85585,2.58372 -4.60282,5.024319 -0.73635,2.405986 -0.52095,5.566995 0.52564,7.713417 1.47553,3.026143 4.57473,4.497934 7.96023,3.780267 z m -22.15236,2.35375 c -0.964272,-0.174963 -2.304119,-0.593455 -2.782765,-0.869183 l -0.324481,-0.186913 v -1.508472 c 0,-0.82966 0.03212,-1.50847 0.07152,-1.50847 0.03938,0 0.273104,0.159668 0.519511,0.354812 0.638118,0.505404 1.794175,1.019202 2.952065,1.312004 1.1637,0.294274 2.71884,0.258577 3.70554,-0.08507 1.94804,-0.678436 2.48157,-3.251525 1.01949,-4.916733 -0.52102,-0.593405 -1.69728,-1.436025 -3.38712,-2.426365 -3.814164,-2.235318 -4.862697,-3.665982 -4.738219,-6.465013 0.04788,-1.07565 0.0981,-1.30033 0.449376,-2.0142 0.716621,-1.45582 2.265543,-2.62702 4.021723,-3.04099 1.58132,-0.37274 4.99532,-0.17282 6.0101,0.35193 l 0.34938,0.18069 v 1.41288 c 0,0.77709 -0.0277,1.41289 -0.0616,1.41289 -0.0339,0 -0.26297,-0.13332 -0.5092,-0.29626 -1.08443,-0.71764 -3.07331,-1.11978 -4.49477,-0.90879 -1.9438,0.28849 -3.12869,1.46706 -3.10952,3.09293 0.0205,1.750818 0.71192,2.519151 3.94098,4.380056 1.80956,1.042855 2.45264,1.494536 3.32503,2.335354 1.27478,1.228632 1.73497,2.282164 1.73497,3.971939 0,3.482768 -2.68602,5.618158 -7.02061,5.581388 -0.45425,-0.004 -1.20642,-0.07604 -1.67146,-0.160423 z m 53.70643,0.09958 c -0.91325,-0.14529 -2.32793,-0.529782 -2.93175,-0.79682 l -0.66705,-0.294992 v -1.547369 c 0,-1.671669 -0.0331,-1.6148 0.64896,-1.112523 2.6363,1.941181 6.89644,1.921723 8.04767,-0.03675 0.28688,-0.488065 0.32985,-0.684091 0.32985,-1.505095 0,-0.8278 -0.0436,-1.022769 -0.35397,-1.584591 -0.43727,-0.791372 -1.36729,-1.576053 -3.08495,-2.602853 -3.60291,-2.153775 -4.61135,-3.058595 -5.24957,-4.710185 -0.35334,-0.914418 -0.35618,-2.723595 -0.005,-3.696125 0.64996,-1.80406 2.19355,-3.07729 4.34041,-3.58022 1.26749,-0.29692 4.30236,-0.18677 5.41584,0.19655 l 0.82596,0.28436 0.0331,1.44541 c 0.0182,0.79498 0.006,1.44542 -0.0255,1.44542 -0.0322,0 -0.39225,-0.18183 -0.80009,-0.40406 -1.14733,-0.62519 -1.97244,-0.82456 -3.39636,-0.8207 -0.99826,0.002 -1.37045,0.0548 -1.91603,0.26806 -2.34659,0.91729 -2.77624,3.722685 -0.83288,5.438296 0.31133,0.274831 1.33596,0.953537 2.27695,1.508228 2.3647,1.393904 3.32085,2.070108 4.06754,2.876615 0.89105,0.96245 1.34729,1.962653 1.43926,3.155203 0.22576,2.927496 -1.37442,5.063348 -4.38588,5.854105 -0.70867,0.186084 -3.10968,0.326011 -3.77578,0.22004 z m 15.57509,8.66e-4 c -2.68364,-0.416668 -4.58125,-2.15557 -5.33627,-4.88994 -0.16523,-0.598599 -0.20888,-1.206009 -0.20696,-2.882308 0.001,-2.020466 0.0186,-2.169777 0.33318,-3.066687 1.13463,-3.23467 3.84599,-5.107094 7.0372,-4.859812 1.88356,0.145972 3.26919,0.850325 4.26725,2.169183 0.95304,1.259438 1.39816,2.888991 1.39816,5.118736 v 1.287544 h -5.25069 -5.2507 v 0.360186 c 0,0.778209 0.3748,1.995319 0.83256,2.703549 0.54229,0.839041 1.53702,1.548461 2.50088,1.783611 1.60894,0.392527 3.79498,-0.0032 5.2638,-0.952312 0.4027,-0.26028 0.75879,-0.473234 0.79133,-0.473234 0.0325,0 0.0441,0.544243 0.0256,1.20943 l -0.0337,1.209429 -0.73124,0.386708 c -1.07254,0.567232 -2.34034,0.8606 -3.9295,0.909296 -0.7463,0.02287 -1.51619,0.01686 -1.7109,-0.0134 z m 4.85488,-10.087072 c -0.21446,-2.051766 -1.61757,-3.435615 -3.49498,-3.446993 -1.5102,-0.0081 -2.75884,0.703858 -3.555,2.030068 -0.36819,0.61329 -0.81373,1.745877 -0.81373,2.068509 0,0.03867 1.7863,0.07033 3.96958,0.07033 h 3.96958 z m 33.84685,10.087076 c -1.95697,-0.30384 -3.65643,-1.416378 -4.57278,-2.993521 -0.81742,-1.406828 -1.18337,-3.516771 -1.01306,-5.840658 0.22832,-3.115546 2.02765,-5.620769 4.71426,-6.563737 1.01567,-0.356481 3.10498,-0.382443 4.21505,-0.05229 2.68372,0.797977 4.14908,3.284136 4.14908,7.039449 v 1.287544 h -5.25069 -5.25069 v 0.360183 c 0,1.409513 0.85856,3.121876 1.9314,3.852088 1.69539,1.153947 4.60379,1.01553 6.66584,-0.317238 0.4027,-0.26028 0.75879,-0.473233 0.79131,-0.473233 0.0325,0 0.0441,0.544244 0.0255,1.209426 l -0.0338,1.20943 -0.73122,0.386712 c -1.07256,0.567231 -2.34035,0.860595 -3.92951,0.909295 -0.74629,0.02287 -1.5162,0.01686 -1.7109,-0.0134 z m 4.85488,-10.087073 c -0.21445,-2.051769 -1.61756,-3.435618 -3.49497,-3.446996 -1.51024,-0.0081 -2.75888,0.703868 -3.55501,2.030078 -0.36819,0.61329 -0.81373,1.74587 -0.81373,2.068509 0,0.03866 1.7863,0.07033 3.96959,0.07033 h 3.96956 z m -79.24952,-0.694035 v -10.501375 h 1.29793 1.29792 v 9.321451 9.321446 h 4.18876 4.18874 v 1.179929 1.17993 h -5.48667 -5.48668 z m 45.66333,2.949825 v -7.551534 h 1.29792 1.29792 v 1.320475 1.320475 l 0.42059,-0.701026 c 0.55823,-0.930397 1.04346,-1.416425 1.76797,-1.770882 0.70737,-0.346084 1.54819,-0.466569 2.46051,-0.352597 l 0.66061,0.08263 v 1.339388 1.339367 l -0.38348,-0.193487 c -0.21091,-0.106436 -0.7326,-0.214007 -1.15931,-0.239099 -1.37377,-0.08071 -2.40512,0.577921 -3.1229,1.994376 -0.57494,1.134615 -0.63973,1.797352 -0.64195,6.568315 l -0.001,4.395242 h -1.29793 -1.29792 z m 11.37992,0.10037 c -1.55398,-4.098155 -2.84313,-7.496344 -2.86476,-7.551545 -0.0216,-0.05512 0.60225,-0.100329 1.38643,-0.100329 0.78415,0 1.42574,0.01942 1.42574,0.04309 0,0.02377 0.87827,2.55115 1.95172,5.616551 1.07344,3.06541 2.01175,5.833601 2.08513,6.151534 0.0733,0.317937 0.16897,0.578068 0.21238,0.578068 0.0435,0 0.14295,-0.278759 0.2212,-0.619466 0.0783,-0.340706 1.05652,-3.115018 2.17394,-6.165139 l 2.03161,-5.54566 1.33984,-0.03348 c 1.244,-0.03115 1.33417,-0.01841 1.26086,0.176992 -0.0435,0.115822 -1.3905,3.514932 -2.99348,7.553711 l -2.91453,7.343237 -1.2453,0.0018 -1.24532,0.0018 -2.82546,-7.451191 z m 27.3218,-0.10037 v -7.551534 h 1.29791 1.29794 l 0.001,1.327413 0.001,1.327413 0.40931,-0.722063 c 0.92474,-1.631322 2.36381,-2.35024 4.23611,-2.116318 l 0.66064,0.08263 v 1.339388 1.339367 l -0.38348,-0.193487 c -0.21091,-0.106436 -0.7326,-0.214007 -1.15931,-0.239099 -1.36791,-0.0804 -2.40544,0.578549 -3.11466,1.978083 -0.59554,1.175262 -0.64861,1.707659 -0.65051,6.525613 l -0.001,4.454237 h -1.29794 -1.29792 z m -106.27161,-15.80043 c -0.61146,-0.15487 -1.13599,-0.52183 -1.51345,-1.05877 -0.3139,-0.44653 -0.36045,-0.62149 -0.39691,-1.49182 -0.0357,-0.85242 -0.001,-1.07248 0.25123,-1.62496 0.30953,-0.67611 0.81407,-1.13843 1.48909,-1.36443 0.49147,-0.16454 1.65833,-0.17538 2.06909,-0.0192 0.25748,0.0979 0.30266,0.18784 0.30266,0.6026 0,0.4191 -0.029,0.47518 -0.20647,0.39966 -0.99144,-0.42178 -1.76771,-0.34667 -2.34091,0.22652 -0.89542,0.89543 -0.77535,2.65407 0.22273,3.26266 0.49565,0.3022 1.3148,0.30003 1.88392,-0.005 l 0.44073,-0.23621 v 0.51964 c 0,0.47437 -0.0316,0.53072 -0.36358,0.64641 -0.52651,0.18354 -1.4074,0.25204 -1.83813,0.14293 z m 8.50914,-0.0254 c -1.36479,-0.30744 -2.17647,-1.88466 -1.82965,-3.55528 0.28685,-1.38177 1.21275,-2.0936 2.72322,-2.0936 1.74692,0 2.59366,0.91446 2.59126,2.79854 -10e-4,1.61018 -0.66211,2.55073 -2.00471,2.85645 -0.61851,0.14083 -0.83179,0.13996 -1.48012,-0.006 z m 1.88734,-1.17593 c 0.94259,-0.82759 0.82411,-2.7874 -0.20646,-3.41578 -0.80725,-0.4922 -1.85243,-0.16968 -2.29515,0.70824 -0.43668,0.86598 -0.33346,1.9599 0.24385,2.58374 0.34131,0.3688 0.61741,0.4721 1.28596,0.48109 0.45953,0.006 0.62867,-0.056 0.9718,-0.35729 z m 3.18127,1.20394 c -0.57246,-0.14703 -0.63866,-0.22886 -0.63866,-0.78954 v -0.5264 l 0.46727,0.23838 c 0.90026,0.45928 1.89259,0.23325 1.89259,-0.43108 0,-0.30251 -0.23153,-0.49966 -1.15794,-0.98613 -0.95309,-0.50045 -1.20204,-0.81473 -1.20149,-1.51664 4.5e-4,-0.68055 0.30868,-1.20732 0.85892,-1.46843 0.4593,-0.21796 1.54995,-0.26213 2.02381,-0.0819 0.25747,0.0979 0.30266,0.18782 0.30266,0.60258 0,0.41909 -0.029,0.47518 -0.20649,0.39966 -0.92641,-0.39411 -1.55869,-0.35237 -1.87047,0.12347 -0.17751,0.27088 -0.17741,0.31546 7.2e-4,0.58793 0.10621,0.16214 0.56251,0.4808 1.01391,0.70813 0.90124,0.45386 1.17292,0.76542 1.25645,1.44092 0.0722,0.58462 -0.26083,1.19235 -0.80979,1.47723 -0.48297,0.25064 -1.4068,0.35675 -1.93189,0.22189 z m 5.23459,-0.083 c -1.17601,-0.36171 -1.84444,-1.57423 -1.70299,-3.08916 0.0881,-0.94446 0.44787,-1.61444 1.1201,-2.08639 0.48062,-0.33746 0.57769,-0.35924 1.6015,-0.35924 0.99156,0 1.13417,0.0293 1.58044,0.32463 0.66095,0.4374 0.99035,1.11136 1.05934,2.16751 0.0743,1.14003 -0.17706,1.88124 -0.84836,2.50004 -0.36443,0.33591 -0.67987,0.50456 -1.12028,0.59903 -0.76823,0.16474 -0.9954,0.15717 -1.68975,-0.0563 z m 2.03993,-1.05797 c 0.43268,-0.39157 0.62329,-0.89643 0.6211,-1.64499 -0.001,-0.38935 -0.0868,-0.9059 -0.19032,-1.14782 -0.52355,-1.22351 -2.32518,-1.20561 -2.9456,0.0291 -0.46425,0.92406 -0.15952,2.38317 0.59945,2.8708 0.42987,0.27617 1.56175,0.2128 1.91537,-0.10721 z m 7.47531,1.12327 c -0.76076,-0.22983 -0.81239,-0.39091 -0.85345,-2.6623 l -0.037,-2.05283 h -0.46438 c -0.45203,0 -0.46435,-0.0111 -0.46435,-0.41296 0,-0.40316 0.0123,-0.41299 0.47196,-0.41299 h 0.47198 v -0.69516 c 0,-0.63595 0.0241,-0.70125 0.28402,-0.76646 0.15618,-0.0391 0.36859,-0.10377 0.47197,-0.14341 0.16104,-0.0618 0.18796,0.0477 0.18796,0.76645 v 0.83858 h 0.64896 0.64896 v 0.41298 0.41296 h -0.64896 -0.64896 v 1.68465 c 0,2.02412 0.097,2.27466 0.84201,2.17475 l 0.45591,-0.0612 v 0.46073 c 0,0.31228 -0.0523,0.46076 -0.16222,0.46076 -0.0891,0 -0.31487,0.0237 -0.50146,0.0526 -0.18658,0.0289 -0.50284,0.004 -0.7028,-0.0572 z m -42.054934,-3.88918 v -3.89377 l 0.619439,0.001 0.619465,10e-4 0.75877,1.73864 c 0.4173,0.95625 1.01049,2.31564 1.3182,3.02084 l 0.55946,1.28221 0.2495,-0.57425 c 0.13726,-0.31582 0.74222,-1.66272 1.3445,-2.99309 l 1.09501,-2.41886 0.6116,-0.0357 0.6116,-0.0357 v 3.89993 3.89994 h -0.47197 -0.47197 l -0.004,-3.03832 -0.004,-3.03832 -1.3401,3.00882 c -1.19441,2.68166 -1.36984,3.00882 -1.61348,3.00882 -0.24303,0 -0.42114,-0.32739 -1.60493,-2.94982 l -1.331588,-2.94983 -0.001,2.97932 -0.001,2.97933 H 99.271399 98.79941 Z m 9.557444,1.12092 v -2.77282 h 0.47197 0.47197 v 2.77282 2.77285 h -0.47197 -0.47197 z m 7.55154,0 v -2.77282 h 0.47199 c 0.46617,0 0.47202,0.006 0.4751,0.44248 l 0.004,0.44247 0.20075,-0.32382 c 0.24803,-0.40004 0.81277,-0.67913 1.37418,-0.67913 0.42286,0 0.42467,0.002 0.42467,0.51648 v 0.51648 l -0.52536,-0.0592 c -0.46345,-0.0523 -0.56593,-0.0186 -0.87001,0.28548 -0.45476,0.45474 -0.61051,1.21877 -0.61051,2.99434 v 1.4101 h -0.47199 -0.47197 z m 20.53081,0.41299 v -2.35986 h -0.47196 c -0.46075,0 -0.47198,-0.0101 -0.47198,-0.41296 0,-0.40316 0.0123,-0.41299 0.47198,-0.41299 h 0.47196 v -0.78252 c 0,-1.3115 0.65705,-1.9855 1.86021,-1.90821 0.55361,0.0356 0.55899,0.0399 0.59543,0.48093 l 0.0368,0.44502 -0.45277,-0.0724 c -0.70716,-0.11312 -1.00535,0.19627 -1.07155,1.11168 l -0.0525,0.72551 h 0.66314 0.66315 v 0.41298 0.41296 h -0.64896 -0.64896 v 2.35986 2.35987 h -0.47198 -0.47197 z m -28.05875,-4.62532 c -0.0779,-0.0779 -0.14159,-0.27965 -0.14159,-0.44838 0,-0.38878 0.20028,-0.59046 0.58405,-0.58815 0.57347,0.004 0.83591,0.44331 0.53684,0.89976 -0.20006,0.30534 -0.7359,0.38017 -0.9793,0.13677 z"
         id="path2259"
         sodipodi:nodetypes="ccsscssssssscssssccssssssssssscssssssssssscsssscssscssscssssssscssccsscssssssssssccssscccssscsscssssssssscssssssscccssssscssssscssscscccccccccccccccccccssscccssscccccccssssssscsssccccccsccccsscccssscccccssscssssssscsssssscssssssscscssssscssssscsssccsssssssssscscssscsccsscsssscccccccsscsssccccccscsscccccccccssscccccccccccccccccscsssscscsccccccssscscccssccccccccccccsscssscss" />
      <path
         style="fill:url(#radialGradient30603);fill-opacity:1;stroke-width:0.194629;stroke:#88827e;stroke-opacity:0"
         d="m 167.93753,-153.98685 c 0.58487,-2.10464 0.71553,-5.45874 0.29858,-7.66483 -0.7584,-4.01269 -2.01411,-5.98351 -6.84908,-10.7495 -3.8099,-3.75557 -4.00179,-4.05236 -3.2832,-5.07828 0.18085,-0.12026 0.75846,1.07635 1.94208,1.59039 1.11075,0.48239 2.41188,0.89085 3.80796,1.1621 3.26535,0.63441 6.66023,1.16671 8.34318,1.44805 5.15995,0.8626 9.48452,1.50023 10.33171,1.68336 13.14766,2.06422 21.98958,5.68151 27.46643,11.23672 1.23363,1.25126 3.81587,4.5774 4.02181,5.18039 0.0306,0.0895 -0.62629,0.27047 -1.45972,0.40207 -2.84302,0.4489 -9.09864,1.79422 -13.67965,2.94192 -5.08758,1.2746 -11.50957,3.06487 -11.71143,3.26482 -0.36682,0.66215 -5.71997,1.4277 -14.58293,5.22835 -2.25321,0.96623 -3.84087,1.53429 -6.11849,2.37196 -2.38023,0.87541 -3.98854,1.80996 -5.30054,2.50284 -0.82595,0.43619 -1.45718,0.59588 -2.12196,0.9128 -0.60412,0.28801 -2.86883,1.45777 -5.48462,3.1265 -0.416,0.26538 -0.47278,-0.0232 -0.82917,-0.24482 6.62545,-5.78408 9.94809,-9.43121 12.48734,-13.73042 1.06651,-1.80571 1.84097,-2.95753 2.7217,-5.58442 z m -1.48805,8.63413 c 1.7006,-1.49591 4.10125,-3.92391 3.623,-3.66427 -1.34486,0.73009 -5.19967,3.62816 -5.7844,4.34876 -0.40142,0.49468 -1.1253,1.33155 -1.6086,1.8597 l -0.87875,0.96027 1.53468,-1.05759 c 0.84407,-0.58167 2.24541,-1.68277 3.11407,-2.44687 z m 4.30419,0.48678 c 3.24314,-1.31404 3.30818,-1.35181 3.28179,-1.90575 -0.0148,-0.31083 -0.24923,-1.03229 -0.52094,-1.60325 -0.80044,-1.68211 -0.80432,-1.68463 -1.42671,-0.92622 -1.09227,1.33099 -3.12157,3.36054 -4.72258,4.72316 -2.92326,2.48802 -2.8086,2.33962 -1.28266,1.65973 0.74933,-0.33388 2.85133,-1.21032 4.6711,-1.94767 z m 6.35161,-4.15786 c 1.52661,-1.83967 3.47432,-4.34909 4.73367,-6.09882 l 0.74741,-1.03846 -1.63288,0.821 c -1.76769,0.88878 -6.36473,3.43007 -6.72097,3.71545 -0.15828,0.12679 -0.0903,0.49443 0.2446,1.32366 0.25507,0.63147 0.52001,1.68646 0.58879,2.34441 0.0984,0.94122 0.17416,1.14174 0.35542,0.94037 0.12671,-0.14078 0.88449,-1.04419 1.68396,-2.00761 z m 7.95365,-0.97419 c 1.87331,-0.57905 4.13684,-1.25901 5.03008,-1.51104 l 1.62405,-0.45823 -1.62405,-1.36965 c -1.67352,-1.41135 -4.2081,-3.30093 -4.57424,-3.4102 -0.11402,-0.0341 -0.75802,0.68259 -1.4311,1.59248 -1.70737,2.30806 -4.28946,5.24935 -5.89341,6.71325 l -1.35463,1.23633 2.40865,-0.87006 c 1.32475,-0.47854 3.94134,-1.34384 5.81465,-1.92288 z m -14.05418,-1.46191 c 0.0928,-0.23161 -1.91477,-1.42965 -2.07923,-1.24077 -0.0831,0.0954 -0.30749,0.61146 -0.49861,1.14669 -0.19114,0.53523 -0.65317,1.53014 -1.02678,2.21089 l -0.67925,1.23776 2.11372,-1.60688 c 1.16254,-0.88379 2.13911,-1.67024 2.17015,-1.74769 z m 25.10091,-4.81384 c 4.46519,-5.61422 5.63441,-7.24995 5.18229,-7.24995 -0.67319,0 -12.74669,4.38591 -13.74536,4.99323 -0.0792,0.0481 0.35879,0.50775 0.97314,1.02141 1.29068,1.07914 2.54261,2.40823 3.63851,3.8628 0.42342,0.56199 0.83266,1.02181 0.90942,1.02181 0.0768,0 1.44566,-1.64219 3.042,-3.6493 z m -21.7129,0.7782 c 1.17391,-2.42712 2.04609,-5.06518 1.54873,-4.68442 -1.07589,0.82368 -2.50298,2.00834 -4.15764,3.45135 l -1.88929,1.6476 0.91614,0.53332 c 0.50387,0.29334 1.17888,0.79417 1.50001,1.113 0.72503,0.7198 0.74829,0.69678 2.08205,-2.06085 z m 24.87412,1.78088 c 3.75689,-0.77376 8.8664,-1.55218 11.46919,-1.7473 l 1.83503,-0.13755 -1.93234,-1.88373 c -1.0628,-1.03605 -2.66653,-2.42785 -3.56387,-3.09289 -1.64004,-1.21552 -4.28108,-2.86943 -4.35978,-2.73028 -0.0233,0.041 -0.34664,0.68775 -0.71872,1.43707 -1.15568,2.32749 -2.9181,4.76058 -5.05533,6.97913 -1.76115,1.82816 -1.97025,2.11051 -1.46945,1.9842 0.32114,-0.081 2.02901,-0.44489 3.79527,-0.80865 z m -20.33877,-2.56438 c 0.96342,-0.53874 2.25827,-1.22652 2.87745,-1.5284 l 1.12579,-0.54888 -2.39088,-1.21116 c -1.31498,-0.66615 -2.44783,-1.21572 -2.51744,-1.22129 -0.0696,-0.006 -0.23446,0.4497 -0.36634,1.01169 -0.29045,1.23769 -0.93512,2.99529 -1.61041,4.39059 l -0.50006,1.03323 0.81511,-0.47312 c 0.44832,-0.26024 1.60337,-0.91393 2.56678,-1.45266 z m -4.23318,-4.94602 c 0.34789,-0.28701 0.63254,-0.56224 0.63254,-0.61162 0,-0.12612 -4.21829,-1.4459 -5.13938,-1.60797 l -0.7602,-0.13375 0.12597,1.04916 c 0.0693,0.57704 0.12673,2.12768 0.12767,3.44587 l 0.001,2.3967 2.18958,-2.00827 c 1.20427,-1.10455 2.47423,-2.24311 2.82212,-2.53012 z m 11.65132,-1.18772 c 1.08473,-2.14399 1.57843,-3.39152 1.91765,-4.84565 l 0.26622,-1.14117 -1.10305,0.62288 c -3.60764,2.03719 -7.92493,4.79463 -7.76199,4.95757 0.0481,0.0481 1.25947,0.67558 2.69198,1.39445 3.01674,1.51386 2.68134,1.59693 3.98919,-0.98808 z m 7.08174,-0.0729 c 1.23104,-0.3862 3.36258,-0.98535 4.73675,-1.33144 l 2.49851,-0.62924 -1.52536,-0.63779 c -2.80657,-1.1735 -8.66391,-3.11064 -9.40564,-3.11064 -0.0863,0 -0.2581,0.59119 -0.3818,1.31375 -0.28487,1.66385 -0.82966,3.51628 -1.54243,5.2448 l -0.55768,1.35239 1.9697,-0.74981 c 1.08335,-0.4124 2.97693,-1.0658 4.20795,-1.45202 z m -16.60945,-3.47229 c -0.10524,-1.72046 -0.58783,-4.51251 -0.82004,-4.74474 -0.18844,-0.18843 -5.92602,4.52546 -5.92602,4.86872 0,0.0901 0.37222,0.26085 0.82717,0.37948 0.45495,0.11863 1.92197,0.54185 3.26004,0.94052 1.33808,0.39866 2.51108,0.68408 2.60666,0.63426 0.097,-0.0505 0.12002,-0.96942 0.0522,-2.07824 z m 3.30501,0.76142 c 0.94819,-0.59893 2.90637,-1.66921 4.3515,-2.37841 l 2.62749,-1.28944 -2.7248,-0.52988 c -3.88203,-0.7549 -7.18478,-1.31475 -7.26763,-1.23192 -0.0391,0.0391 0.11032,0.62399 0.33183,1.29986 0.44272,1.35056 0.80121,3.35333 0.8035,4.48891 7.4e-4,0.40142 0.0358,0.72986 0.0778,0.72986 0.042,0 0.85211,-0.49004 1.80032,-1.08898 z m -8.11714,-4.15992 c 0.68901,-0.46664 1.59251,-1.04141 2.00777,-1.27729 l 0.75505,-0.42886 -2.88361,-0.53388 c -1.58598,-0.29361 -3.40535,-0.65202 -4.04302,-0.79645 -0.63769,-0.14443 -1.17809,-0.24392 -1.20092,-0.2211 -0.0228,0.0228 0.20325,0.61519 0.50237,1.31635 0.29913,0.70118 0.79081,2.03316 1.09264,2.95998 l 0.54878,1.68512 0.9841,-0.92773 c 0.54126,-0.51025 1.54783,-1.30952 2.23684,-1.77614 z m -5.74259,-1.19889 c -0.3917,-1.21726 -0.73352,-2.23724 -0.7596,-2.26659 -0.0261,-0.0294 -0.69486,-0.23016 -1.48618,-0.44624 -0.79134,-0.21605 -1.61396,-0.44364 -1.82805,-0.50572 -0.2141,-0.0621 0.40633,0.68047 1.37873,1.65013 0.9724,0.96966 2.10366,2.25039 2.51392,2.84605 0.41024,0.59568 0.77909,1.04987 0.81964,1.00931 0.0405,-0.0405 -0.24676,-1.06967 -0.63846,-2.28694 z"
         id="path2259-4"
         sodipodi:nodetypes="csscssscsssscssssscscsssscssscssssssscsssssssscscsscsssssscsssssssssssscssssscsscsssssscscsscsscsscsccsccsscsssssscsssscsscsssssccsscssscsssscssssscsssssssssss" />
    </g>
    <path
       style="fill:#000000;stroke-width:0.264583"
       id="path1913"
       d="" />
  </g>
</svg>
