<?xml version="1.0" encoding="UTF-8" standalone="no"?>
<!-- Created with Inkscape (http://www.inkscape.org/) -->

<svg
   width="24"
   height="24"
   viewBox="0 0 24 24"
   version="1.1"
   id="svg5"
   xml:space="preserve"
   inkscape:version="1.2.2 (732a01da63, 2022-12-09)"
   sodipodi:docname="toastr.svg"
   xmlns:inkscape="http://www.inkscape.org/namespaces/inkscape"
   xmlns:sodipodi="http://sodipodi.sourceforge.net/DTD/sodipodi-0.dtd"
   xmlns="http://www.w3.org/2000/svg"
   xmlns:svg="http://www.w3.org/2000/svg"><sodipodi:namedview
     id="namedview7"
     pagecolor="#505050"
     bordercolor="#ffffff"
     borderopacity="1"
     inkscape:showpageshadow="0"
     inkscape:pageopacity="0"
     inkscape:pagecheckerboard="1"
     inkscape:deskcolor="#505050"
     inkscape:document-units="px"
     showgrid="false"
     inkscape:zoom="16"
     inkscape:cx="23.4375"
     inkscape:cy="16"
     inkscape:window-width="1920"
     inkscape:window-height="1027"
     inkscape:window-x="-8"
     inkscape:window-y="-8"
     inkscape:window-maximized="1"
     inkscape:current-layer="layer1"
     showguides="true" /><defs
     id="defs2" /><g
     inkscape:label="Layer 1"
     inkscape:groupmode="layer"
     id="layer1"><g
       id="g18822"
       transform="translate(1.370019,1.370019)"><rect
         style="fill:#51a351;fill-opacity:1;stroke:none;stroke-width:1.67401;stroke-linecap:round;stroke-miterlimit:15.9;paint-order:markers stroke fill"
         id="rect15430"
         width="10.629981"
         height="10.629981"
         x="0"
         y="0"
         ry="0" /><rect
         style="fill:#ca5e59;fill-opacity:1;stroke:none;stroke-width:1.67401;stroke-linecap:round;stroke-miterlimit:15.9;paint-order:markers stroke fill"
         id="rect15430-9"
         width="10.629981"
         height="10.629981"
         x="10.629981"
         y="0"
         ry="0" /><rect
         style="fill:#f9a938;fill-opacity:1;stroke:none;stroke-width:1.67401;stroke-linecap:round;stroke-miterlimit:15.9;paint-order:markers stroke fill"
         id="rect15430-8"
         width="10.629981"
         height="10.629981"
         x="0"
         y="10.629981"
         ry="0" /><path
         d="m 3.1639622,18.070263 q -0.085619,0 -0.1442894,-0.03963 -0.058673,-0.03963 -0.084542,-0.09769 -0.035279,-0.04347 -0.0348,-0.119457 4.693e-4,-0.07596 0.0348,-0.143706 L 5.091878,13.95125 q 0.028605,-0.06292 0.097845,-0.09725 0.069234,-0.03432 0.1258566,-0.03432 0.056621,0 0.1252683,0.03432 0.06865,0.03432 0.1029749,0.09725 L 7.70057,17.66978 q 0.028605,0.06772 0.029079,0.143706 4.808e-4,0.07596 -0.029079,0.119457 -0.034575,0.05378 -0.093137,0.09553 -0.058564,0.04178 -0.1356972,0.04178 z M 3.5072111,17.606877 H 7.122766 L 5.3149887,14.47759 Z M 5.337071,17.320835 q 0.07846,0 0.1311671,-0.05359 0.0527,-0.05361 0.0527,-0.130366 0,-0.07105 -0.053707,-0.12659 -0.053707,-0.05556 -0.1321675,-0.05556 -0.072747,0 -0.1293583,0.05528 -0.056621,0.05528 -0.056621,0.128791 0,0.0768 0.057619,0.129439 0.057619,0.05264 0.1303658,0.05264 z m 0,-0.600683 q 0.069451,0 0.115217,-0.04933 0.045766,-0.04933 0.045766,-0.116563 v -0.90961 q 0,-0.06737 -0.046769,-0.113783 -0.046773,-0.04641 -0.1162245,-0.04641 -0.063735,0 -0.1134151,0.04641 -0.04968,0.04641 -0.04968,0.113783 v 0.90961 q 0,0.06721 0.050685,0.116563 0.05068,0.04933 0.1144157,0.04933 z M 5.314977,16.039373 Z"
         id="path18837"
         style="fill:#ffffff;stroke-width:0.00572081" /><rect
         style="fill:#59abc3;fill-opacity:1;stroke:none;stroke-width:1.67401;stroke-linecap:round;stroke-miterlimit:15.9;paint-order:markers stroke fill"
         id="rect15430-9-5"
         width="10.629981"
         height="10.629981"
         x="10.629981"
         y="10.629981"
         ry="0" /><path
         d="M 4.5308239,5.9829933 3.4808396,4.9197176 C 3.367423,4.81339 3.2278195,4.7602262 3.0620281,4.7602262 c -0.1657914,0 -0.3097275,0.055379 -0.4318093,0.1661368 -0.1151882,0.1196186 -0.1727824,0.2636039 -0.1727824,0.4319558 0,0.1683519 0.062026,0.3012614 0.1860734,0.3987284 l 1.4620041,1.4752949 c 0.1087465,0.1240492 0.2489037,0.1860733 0.4204725,0.1860733 0.1715776,0 0.3193901,-0.062026 0.4434394,-0.1860733 L 7.9864703,4.2152974 C 8.1105195,4.1018815 8.1725436,3.964493 8.1725436,3.8031318 c 0,-0.1613609 -0.061308,-0.3075126 -0.1839332,-0.438455 C 7.8659794,3.2583492 7.7192866,3.2074008 7.5485337,3.2118309 7.3777719,3.2162601 7.2357801,3.2716405 7.1225585,3.3779678 Z"
         style="fill:#ffffff;fill-opacity:1;stroke-width:0.0132909"
         id="path18609" /><path
         id="path18704"
         style="fill:#ffffff;fill-opacity:1;stroke:none;stroke-width:0.0269153;stroke-linecap:round;stroke-miterlimit:15.9;paint-order:markers stroke fill"
         d="m 15.920038,2.6574952 c -0.822505,0.6219363 -1.586928,0.55262 -2.321431,0.4994251 -0.02732,0.1255598 -0.0037,0.2658855 -0.01159,0.3969982 0.0057,0.5614393 -0.01238,1.1233814 0.01271,1.6844384 0.102693,0.7836852 0.516402,1.5302704 1.142024,2.0732126 0.343342,0.2946318 0.756933,0.5254496 1.202957,0.660916 0.703549,-0.2147138 1.307999,-0.6623894 1.717336,-1.2250126 0.43434,-0.5746929 0.656882,-1.2762116 0.641477,-1.9737758 0.0044,-0.5333159 -0.0027,-1.0666375 -0.0042,-1.5999548 -0.727685,0.080346 -1.588848,0.039404 -2.379373,-0.5162471 z m 0.03364,1.1962279 c 0.20584,-5.745e-4 0.411509,0.1546646 0.392513,0.3412987 0.01614,0.4812405 0.01466,0.9690344 0,1.4522955 -0.0077,0.2201241 -0.321543,0.377837 -0.551761,0.2758803 -0.164592,-0.052102 -0.263144,-0.2026826 -0.241862,-0.3495232 -0.0015,-0.4873018 -0.01718,-0.9776938 0.0093,-1.4631362 0.03825,-0.1497886 0.216945,-0.2583715 0.391764,-0.2568151 z m -0.0015,2.4821728 c 0.239681,-0.00773 0.438227,0.1879062 0.413821,0.3895218 -0.0017,0.1763064 -0.173882,0.3353396 -0.38354,0.3330748 -0.218569,0.024655 -0.440748,-0.1157204 -0.45494,-0.3087765 -0.04,-0.2020918 0.146667,-0.4049879 0.386157,-0.4123249 0.01283,-8.477e-4 0.02564,-0.00121 0.0385,-0.00111 z" /><path
         id="path18763"
         style="fill:#ffffff;fill-opacity:1;stroke:none;stroke-width:0.0258489;stroke-linecap:round;stroke-miterlimit:15.9;paint-order:markers stroke fill"
         d="m 15.876844,13.510107 c -0.59346,-0.0013 -1.165269,0.29485 -1.554541,0.73564 -0.353097,0.394376 -0.569558,0.920332 -0.547791,1.453745 -0.01467,0.342023 0.05798,0.685542 0.213013,0.990833 0.316398,0.63058 0.937678,1.121532 1.644279,1.21488 0.369221,0.0271 0.740176,0.01802 1.110084,0.02782 0.0097,0.145166 -0.0093,0.295021 0.01782,0.437816 0.04564,0.03633 0.0889,-0.04767 0.124484,-0.06802 0.404662,-0.379153 0.7424,-0.832861 0.96022,-1.344597 0.285303,-0.661455 0.377528,-1.435162 0.127807,-2.122262 C 17.850868,14.51365 17.651261,14.22278 17.388476,13.999627 17.072815,13.716793 16.659645,13.541451 16.237,13.513433 c -0.100778,-0.0032 -0.201635,-0.0027 -0.302449,-0.0024 -0.01918,-6.67e-4 -0.03857,-8.64e-4 -0.05771,-8.86e-4 z m 0.13657,0.712661 c 0.07574,0 0.139112,0.02636 0.190352,0.07921 0.03797,0.03916 0.06208,0.08544 0.07191,0.13848 0.0035,0.01855 0.0051,0.03782 0.0051,0.05805 0,0.07354 -0.02571,0.135298 -0.07704,0.185044 -0.05133,0.04974 -0.11491,0.07437 -0.190654,0.07437 -0.07574,0 -0.139112,-0.02463 -0.190352,-0.07437 -0.05124,-0.04974 -0.07704,-0.111507 -0.07704,-0.185044 0,-0.07814 0.02571,-0.143679 0.07704,-0.196533 0.05133,-0.05286 0.11491,-0.07921 0.190654,-0.07921 z m 0.02266,0.949107 c 0.0693,0 0.127459,0.02321 0.174338,0.06985 0.04688,0.04664 0.0704,0.104613 0.0704,0.173555 v 1.459792 c 0,0.06894 -0.02296,0.126917 -0.06889,0.173554 -0.04593,0.04664 -0.103529,0.06985 -0.172827,0.06985 -0.0693,0 -0.127458,-0.02321 -0.174338,-0.06985 -0.04687,-0.04664 -0.0704,-0.104612 -0.0704,-0.173554 V 15.41528 c 0,-0.06894 0.02296,-0.126917 0.06889,-0.173555 0.04593,-0.04664 0.103529,-0.06985 0.172827,-0.06985 z" /></g></g></svg>
