<?xml version="1.0" encoding="UTF-8" standalone="no"?>
<svg
   height="48"
   viewBox="0 -960 960 960"
   width="48"
   version="1.1"
   id="svg1"
   sodipodi:docname="clinic.svg"
   inkscape:version="1.3 (0e150ed6c4, 2023-07-21)"
   xmlns:inkscape="http://www.inkscape.org/namespaces/inkscape"
   xmlns:sodipodi="http://sodipodi.sourceforge.net/DTD/sodipodi-0.dtd"
   xmlns="http://www.w3.org/2000/svg"
   xmlns:svg="http://www.w3.org/2000/svg">
  <defs
     id="defs1" />
  <sodipodi:namedview
     id="namedview1"
     pagecolor="#505050"
     bordercolor="#ffffff"
     borderopacity="1"
     inkscape:showpageshadow="0"
     inkscape:pageopacity="0"
     inkscape:pagecheckerboard="1"
     inkscape:deskcolor="#d1d1d1"
     inkscape:zoom="17.3125"
     inkscape:cx="23.971119"
     inkscape:cy="24"
     inkscape:window-width="1920"
     inkscape:window-height="1027"
     inkscape:window-x="-8"
     inkscape:window-y="-8"
     inkscape:window-maximized="1"
     inkscape:current-layer="svg1" />
  <path
     d="M415-375v35q0 28 18.603 46.5t46.75 18.5q28.147 0 46.897-18.5T546-340v-35h34q28 0 47-18.603t19-46.75q0-28.147-19-46.897T580-506h-34v-34q0-28-19.103-47t-47.25-19q-28.147 0-46.397 19T415-540v34h-35q-28 0-46.5 19.103t-18.5 47.25q0 28.147 18.5 46.397T380-375h35ZM230-99q-37.8 0-64.4-26.6Q139-152.2 139-190v-376q0-22.13 8.547-40.8Q156.094-625.469 175-638l250-189q23.68-19 54.84-19Q511-846 535-827l250 189q19.062 12.198 28.031 31.081Q822-588.036 822-566v376q0 37.8-26.894 64.4Q768.213-99 730-99H230Z"
     id="path1"
     style="fill:#e6ce37;fill-opacity:1" />
</svg>
