<?xml version="1.0" encoding="UTF-8" standalone="no"?>
<svg
   height="48"
   viewBox="0 -960 960 960"
   width="48"
   version="1.1"
   id="svg1"
   sodipodi:docname="gym.svg"
   inkscape:version="1.3 (0e150ed6c4, 2023-07-21)"
   xmlns:inkscape="http://www.inkscape.org/namespaces/inkscape"
   xmlns:sodipodi="http://sodipodi.sourceforge.net/DTD/sodipodi-0.dtd"
   xmlns="http://www.w3.org/2000/svg"
   xmlns:svg="http://www.w3.org/2000/svg">
  <defs
     id="defs1" />
  <sodipodi:namedview
     id="namedview1"
     pagecolor="#505050"
     bordercolor="#ffffff"
     borderopacity="1"
     inkscape:showpageshadow="0"
     inkscape:pageopacity="0"
     inkscape:pagecheckerboard="1"
     inkscape:deskcolor="#d1d1d1"
     inkscape:zoom="17.3125"
     inkscape:cx="23.971119"
     inkscape:cy="24"
     inkscape:window-width="1920"
     inkscape:window-height="1027"
     inkscape:window-x="-8"
     inkscape:window-y="-8"
     inkscape:window-maximized="1"
     inkscape:current-layer="svg1" />
  <path
     d="M511-103q-13-11-13-28t13-31l113-111-351-351-111 113q-13 12-30.5 12T103-510q-11-12-11-30.5t11-29.5l25-25-22-24q-13-13-13-31.5t13-32.5l54-54-8-8q-14-13-14-31.5t14-32.5q14-14 32.5-14t31.5 14l8 9 54-55q13-12 31.5-12t32.5 12l23 23 27-26q12-12 29-12t29 12q12 12 12 29t-12 29L337-688l351 351 112-113q11-11 29-11t30 11q11 11 11 29t-11 29l-27 27 23 23q12 14 12 32.5T855-278l-55 55 8 8q13 14 13 33t-13 31q-13 14-31 14t-33-14l-8-9-53 54q-14 13-32.5 13T619-106l-23-24-27 27q-13 13-30 13t-28-13Z"
     id="path1"
     style="fill:#000000;fill-opacity:1" />
</svg>
