<?xml version="1.0" encoding="UTF-8" standalone="no"?>
<svg
   viewBox="0 0 32 31.999999"
   data-supported-dps="24x24"
   fill="currentColor"
   class="mercado-match"
   width="32"
   height="32"
   focusable="false"
   version="1.1"
   id="svg4"
   sodipodi:docname="linkedin.svg"
   inkscape:version="1.3 (0e150ed6c4, 2023-07-21)"
   xmlns:inkscape="http://www.inkscape.org/namespaces/inkscape"
   xmlns:sodipodi="http://sodipodi.sourceforge.net/DTD/sodipodi-0.dtd"
   xmlns="http://www.w3.org/2000/svg"
   xmlns:svg="http://www.w3.org/2000/svg">
  <defs
     id="defs8" />
  <sodipodi:namedview
     id="namedview6"
     pagecolor="#505050"
     bordercolor="#ffffff"
     borderopacity="1"
     inkscape:showpageshadow="0"
     inkscape:pageopacity="0"
     inkscape:pagecheckerboard="1"
     inkscape:deskcolor="#505050"
     showgrid="false"
     inkscape:zoom="12.477489"
     inkscape:cx="1.923464"
     inkscape:cy="9.7375365"
     inkscape:window-width="1920"
     inkscape:window-height="1027"
     inkscape:window-x="-8"
     inkscape:window-y="-8"
     inkscape:window-maximized="1"
     inkscape:current-layer="svg4" />
  <path
     d="M 27.9,2 H 4.1 A 2.1,2.1 0 0 0 2,4.1 V 27.9 A 2.1,2.1 0 0 0 4.1,30 H 27.9 A 2.1,2.1 0 0 0 30,27.9 V 4.1 A 2.1,2.1 0 0 0 27.9,2 Z M 10.4,25.8 H 6.2 V 13.2 h 4.2 z M 8.3,10.75 A 2.45,2.45 0 1 1 10.82,8.3 2.492,2.492 0 0 1 8.3,10.75 Z M 25.8,25.8 h -4.2 v -6.636 c 0,-1.988 -0.84,-2.702 -1.932,-2.702 a 2.436,2.436 0 0 0 -2.268,2.604 0.924,0.924 0 0 0 0,0.196 V 25.8 H 13.2 V 13.2 h 4.06 v 1.82 a 4.354,4.354 0 0 1 3.78,-1.96 c 2.17,0 4.704,1.204 4.704,5.124 z"
     id="path2"
     style="fill:#000000;stroke-width:1.4" />
</svg>
