<?xml version="1.0" encoding="UTF-8" standalone="no"?>
<svg
   height="48"
   viewBox="0 -960 960 960"
   width="48"
   version="1.1"
   id="svg1"
   sodipodi:docname="person.svg"
   inkscape:version="1.3 (0e150ed6c4, 2023-07-21)"
   xmlns:inkscape="http://www.inkscape.org/namespaces/inkscape"
   xmlns:sodipodi="http://sodipodi.sourceforge.net/DTD/sodipodi-0.dtd"
   xmlns="http://www.w3.org/2000/svg"
   xmlns:svg="http://www.w3.org/2000/svg">
  <defs
     id="defs1" />
  <sodipodi:namedview
     id="namedview1"
     pagecolor="#505050"
     bordercolor="#ffffff"
     borderopacity="1"
     inkscape:showpageshadow="0"
     inkscape:pageopacity="0"
     inkscape:pagecheckerboard="1"
     inkscape:deskcolor="#d1d1d1"
     inkscape:zoom="17.3125"
     inkscape:cx="23.971119"
     inkscape:cy="24"
     inkscape:window-width="1920"
     inkscape:window-height="1027"
     inkscape:window-x="-8"
     inkscape:window-y="-8"
     inkscape:window-maximized="1"
     inkscape:current-layer="svg1" />
  <path
     d="M228-266q60-38 121.045-57 61.046-19 131-19Q550-342 612.5-322 675-302 734-266q41-54 58.5-104.457Q810-420.914 810-480q0-140.247-94.826-235.123Q620.349-810 480.174-810 340-810 245-715.123 150-620.247 150-480q0 60 17.527 109.717T228-266Zm251.854-180q-59.011 0-99.433-40.646-40.421-40.645-40.421-99Q340-644 380.567-685t99.579-41q59.011 0 99.433 41.146Q620-643.709 620-585.354 620-527 579.433-486.5T479.854-446Zm-.42 387q-85.985 0-162.894-32.756-76.909-32.757-134.821-91.053-57.911-58.297-90.315-133.975Q59-392.462 59-480.39q0-86.929 33.21-163.395 33.211-76.467 90.965-134.078 57.754-57.611 133.536-90.874Q392.493-902 480.5-902q87.007 0 163.26 33.74 76.253 33.74 133.538 91.08 57.286 57.34 90.994 133.745Q902-567.029 902-480.266q0 87.922-33.263 163.629-33.263 75.708-90.943 133.462-57.68 57.754-134.353 90.965Q566.768-59 479.434-59Z"
     id="path1"
     style="fill:#000000;fill-opacity:1" />
</svg>
