<?xml version="1.0" encoding="UTF-8" standalone="no"?>
<svg
   height="48"
   viewBox="0 -960 960 960"
   width="48"
   version="1.1"
   id="svg1"
   sodipodi:docname="showroom.svg"
   inkscape:version="1.3 (0e150ed6c4, 2023-07-21)"
   xmlns:inkscape="http://www.inkscape.org/namespaces/inkscape"
   xmlns:sodipodi="http://sodipodi.sourceforge.net/DTD/sodipodi-0.dtd"
   xmlns="http://www.w3.org/2000/svg"
   xmlns:svg="http://www.w3.org/2000/svg">
  <defs
     id="defs1" />
  <sodipodi:namedview
     id="namedview1"
     pagecolor="#505050"
     bordercolor="#ffffff"
     borderopacity="1"
     inkscape:showpageshadow="0"
     inkscape:pageopacity="0"
     inkscape:pagecheckerboard="1"
     inkscape:deskcolor="#d1d1d1"
     showguides="true"
     inkscape:zoom="8.65625"
     inkscape:cx="22.064982"
     inkscape:cy="24.895307"
     inkscape:window-width="1920"
     inkscape:window-height="1027"
     inkscape:window-x="-8"
     inkscape:window-y="-8"
     inkscape:window-maximized="1"
     inkscape:current-layer="svg1" />
  <path
     id="path1"
     style="stroke-width:0.86898;fill:#e6ce30;fill-opacity:1"
     d="M 103.32031 -892.8125 L 103.32031 -381.75781 L 313.24219 -381.75781 C 299.9683 -404.62109 294.11308 -441.56098 295.54688 -467.89062 C 295.60787 -469.18644 295.69355 -480.4637 295.78125 -481.75781 L 202.42188 -481.75781 L 202.42188 -793.71094 L 755.9375 -793.71094 L 755.9375 -481.75781 L 664.17969 -481.75781 C 665.93829 -444.97449 652.89794 -394.74132 646.09375 -381.75781 C 716.07428 -380.93236 785.82765 -382.75544 855.85938 -381.75781 L 855.85938 -892.8125 L 103.32031 -892.8125 z M 636.28906 -749.10156 C 622.99891 -749.10156 611.76911 -744.41186 602.5 -735.03906 C 593.23091 -725.66685 588.55469 -714.4017 588.55469 -701.25 C 588.55469 -687.95984 593.23578 -676.69099 602.53906 -667.42188 C 611.84234 -658.15278 623.15517 -653.51562 636.44531 -653.51562 C 649.73547 -653.51562 660.96526 -658.1973 670.23438 -667.5 C 679.50347 -676.80328 684.14062 -688.07704 684.14062 -701.36719 C 684.14062 -714.51889 679.49859 -725.77856 670.19531 -735.11719 C 660.89203 -744.45581 649.57921 -749.10156 636.28906 -749.10156 z M 307.53906 -724.84375 C 303.74164 -724.84375 300.24382 -723.29069 297.07031 -720.11719 L 252.85156 -676.52344 C 249.67805 -673.5353 248.08595 -669.98239 248.08594 -665.85938 C 248.08594 -661.73636 249.67805 -658.09538 252.85156 -654.92188 L 297.07031 -611.32812 C 300.26931 -608.15462 303.78127 -606.60156 307.57812 -606.60156 C 311.37556 -606.60156 314.87336 -608.15462 318.04688 -611.32812 L 362.26562 -654.92188 C 365.43914 -657.91 367.03125 -661.46292 367.03125 -665.58594 C 367.03125 -669.70896 365.43914 -673.34992 362.26562 -676.52344 L 318.04688 -720.11719 C 314.84788 -723.29069 311.33592 -724.84375 307.53906 -724.84375 z M 479.96094 -583.82812 C 445.53608 -583.82812 416.19703 -571.64966 391.95312 -547.34375 C 367.70921 -523.03727 355.58594 -493.74648 355.58594 -459.45312 C 355.58594 -424.97439 367.67711 -395.61085 391.91406 -371.32812 C 416.15102 -347.04599 445.49553 -334.92188 479.96094 -334.92188 C 514.42635 -334.92188 543.81364 -347.06128 568.08594 -371.36719 C 592.35881 -395.67365 604.53125 -424.97365 604.53125 -459.33594 C 604.53125 -493.69823 592.35334 -523.03727 568.04688 -547.34375 C 543.74097 -571.64966 514.38579 -583.82812 479.96094 -583.82812 z M 480.15625 -526.09375 C 498.78655 -526.09375 514.5326 -519.54883 527.42188 -506.52344 C 540.31055 -493.49803 546.75781 -477.70142 546.75781 -459.14062 C 546.75781 -440.57926 540.25139 -424.84181 527.22656 -411.95312 C 514.20117 -399.06386 498.35687 -392.65625 479.72656 -392.65625 C 461.09626 -392.65625 445.39788 -399.16209 432.57812 -412.1875 C 419.75838 -425.2129 413.35937 -441.01813 413.35938 -459.64844 C 413.35938 -478.09395 419.81756 -493.76782 432.77344 -506.67969 C 445.72932 -519.59211 461.52594 -526.09375 480.15625 -526.09375 z M 479.96094 -300.15625 C 448.35562 -300.15625 417.09873 -296.77075 386.25 -290.03906 C 355.4007 -283.30738 325.67592 -273.28526 297.07031 -259.96094 C 278.04664 -250.99424 262.74981 -237.59963 251.21094 -219.80469 C 239.67206 -202.00918 233.90625 -182.66594 233.90625 -161.83594 L 233.90625 -115.54688 C 233.90625 -107.19078 236.77145 -100.18168 242.46094 -94.492188 C 248.15042 -88.803277 255.15953 -85.9375 263.51562 -85.9375 L 696.36719 -85.9375 C 704.70648 -85.9375 711.77194 -88.802698 717.53906 -94.492188 C 723.30619 -100.1811 726.17187 -107.19078 726.17188 -115.54688 L 726.17188 -161.83594 C 726.17188 -182.66594 720.35086 -202.05949 708.75 -219.88281 C 697.14856 -237.70555 681.85008 -251.04986 662.8125 -259.96094 C 634.2069 -273.28526 604.48211 -283.30738 573.63281 -290.03906 C 542.78409 -296.77075 511.56626 -300.15625 479.96094 -300.15625 z M 479.92188 -242.38281 C 506.048 -242.38281 531.63549 -239.63919 556.64062 -234.17969 C 581.64518 -228.72018 605.88851 -220.75158 629.41406 -210.27344 C 639.81632 -205.77733 648.3841 -199.39423 655.07812 -191.09375 C 661.77157 -182.79269 665.85863 -173.74043 667.38281 -163.94531 L 667.38281 -143.71094 L 292.5 -143.71094 L 292.5 -163.94531 C 294.02419 -173.74043 298.1503 -182.79269 304.84375 -191.09375 C 311.53777 -199.39423 320.10556 -205.77733 330.50781 -210.27344 C 354.03338 -220.75158 378.29523 -228.72018 403.28125 -234.17969 C 428.26785 -239.63919 453.79576 -242.38281 479.92188 -242.38281 z " />
</svg>
