<?xml version="1.0" encoding="UTF-8" standalone="no"?>
<svg
   height="32"
   viewBox="0 -960 640 640"
   width="32"
   version="1.1"
   id="svg1"
   sodipodi:docname="www.svg"
   inkscape:version="1.3 (0e150ed6c4, 2023-07-21)"
   xmlns:inkscape="http://www.inkscape.org/namespaces/inkscape"
   xmlns:sodipodi="http://sodipodi.sourceforge.net/DTD/sodipodi-0.dtd"
   xmlns="http://www.w3.org/2000/svg"
   xmlns:svg="http://www.w3.org/2000/svg">
  <defs
     id="defs1" />
  <sodipodi:namedview
     id="namedview1"
     pagecolor="#505050"
     bordercolor="#ffffff"
     borderopacity="1"
     inkscape:showpageshadow="0"
     inkscape:pageopacity="0"
     inkscape:pagecheckerboard="1"
     inkscape:deskcolor="#d1d1d1"
     inkscape:zoom="17.3125"
     inkscape:cx="23.971119"
     inkscape:cy="24"
     inkscape:window-width="1920"
     inkscape:window-height="1027"
     inkscape:window-x="-8"
     inkscape:window-y="-8"
     inkscape:window-maximized="1"
     inkscape:current-layer="svg1" />
  <path
     d="m 320.47373,-338.32845 q -63.27477,0 -118.09566,-22.93162 -54.82089,-22.9316 -96.38443,-64.85346 -41.563635,-41.92185 -64.495245,-97.06451 -22.931613,-55.14193 -22.931613,-118.61377 0,-63.44245 22.931613,-118.26334 22.93161,-54.82089 64.495245,-95.30953 41.56354,-40.48862 96.34788,-63.77854 54.78363,-23.28992 118.25546,-23.28992 63.44247,0 117.90505,23.28992 54.46259,23.28992 96.02613,63.77854 41.56355,40.48864 64.85347,95.40842 23.28992,54.91978 23.28992,118.50054 0,63.35145 -23.28992,118.38589 -23.28992,55.03445 -64.85347,96.9563 -41.56354,41.92186 -96.18808,64.85346 -54.62454,22.93162 -117.86635,22.93162 z m -0.92945,-63.06194 q 23.64823,-24.36484 39.77202,-56.97072 16.12379,-32.60589 27.5896,-79.18573 H 254.33251 q 9.31597,43.71339 25.86542,77.50742 16.54947,33.79403 39.34635,58.64903 z m -58.04564,-8.59935 q -17.91532,-25.79807 -30.00817,-56.84604 -12.09284,-31.04725 -20.87135,-70.71106 H 105.99364 q 25.79805,49.30726 60.55379,78.3996 34.75572,29.09233 94.95121,49.1575 z m 116.8079,-0.71662 q 50.87952,-14.33225 90.65154,-48.01306 39.77202,-33.68081 65.57008,-78.82742 h -103.0905 q -9.41773,38.69709 -22.31677,69.86976 -12.89902,31.17265 -30.81435,56.97072 z M 92.403035,-577.67716 H 203.45299 q -2.86645,-19.34855 -3.22476,-34.39742 -0.3583,-15.04887 -0.3583,-29.38114 0,-17.91532 0.71661,-31.17265 0.71661,-13.25735 3.58306,-30.45606 H 92.403035 q -4.32478,17.19871 -6.47463,30.09774 -2.14985,12.89904 -2.14985,31.53097 0,17.91532 2.14985,32.24759 2.14985,14.33225 6.47463,31.53097 z m 154.068955,0 h 148.31665 q 2.14984,-22.21501 2.50815,-35.83065 0.3583,-13.61564 0.3583,-27.94791 0,-14.33225 -0.3583,-26.87298 -0.35831,-12.54072 -2.53037,-34.75573 H 246.44977 q -2.86645,22.21501 -3.58307,34.75573 -0.71661,12.54073 -0.71661,26.87298 0,14.33227 0.71661,27.94791 0.71662,13.61564 3.60529,35.83065 z m 190.59682,0 h 111.075 q 2.86645,-17.19872 5.3746,-31.53097 2.50813,-14.33227 2.50813,-32.24759 0,-18.63193 -2.50813,-31.53097 -2.50815,-12.89903 -5.3746,-30.09774 h -110.3584 q 0.71662,26.51468 1.43323,38.4642 0.71662,11.94952 0.71662,23.16451 0,15.04887 -1.07493,28.66452 -1.07492,13.61565 -1.79152,35.11404 z m -6.34776,-166.2542 h 103.80711 q -24.36484,-47.29646 -64.13686,-80.97726 -39.77201,-33.68081 -92.80137,-45.86323 17.91533,26.51468 30.81436,56.61242 12.89903,30.09774 22.31676,70.22807 z m -176.38854,0 h 133.29 q -6.44952,-35.63072 -24.72314,-71.91999 -18.27364,-36.28856 -43.35509,-61.37002 -20.78177,17.91533 -36.18895,49.08799 -15.40717,31.17266 -29.02282,84.20202 z m -148.33887,0 h 105.21024 q 8.01459,-37.98049 19.4804,-67.71993 11.46581,-29.73943 30.09774,-58.40395 -53.74597,12.18243 -92.44306,44.43 -38.6971,32.24759 -62.34532,81.69388 z"
     id="path1"
     style="fill:#000000;fill-opacity:1;stroke-width:0.716613" />
</svg>
